<svg width="113" height="93" viewBox="0 0 113 93" fill="none" xmlns="http://www.w3.org/2000/svg">
<path d="M25.4676 20.0625C25.8398 19.6545 26.4431 19.6545 26.8152 20.0625L32.2605 26.0322L12.5076 47.6895C12.1355 48.0974 12.1356 48.7589 12.5076 49.167L32.2498 70.8125L26.8152 76.7715C26.4431 77.1793 25.8397 77.1793 25.4676 76.7715L0.279099 49.1553C-0.0930046 48.7472 -0.0930572 48.0857 0.279099 47.6777L25.4676 20.0625Z" fill="#80E1D6"/>
<path d="M86.5666 20.374C86.1945 19.9663 85.5911 19.9664 85.2189 20.374L79.7736 26.3438L99.5265 48.002C99.8986 48.41 99.8986 49.0715 99.5265 49.4795L79.7843 71.124L85.2189 77.083C85.5911 77.4911 86.1944 77.4911 86.5666 77.083L111.755 49.4678C112.127 49.0597 112.127 48.3983 111.755 47.9902L86.5666 20.374Z" fill="#80E1D6"/>
<path d="M77.0104 3.98803C77.2641 3.34956 76.8021 2.68449 76.1047 2.6844L69.2496 2.6836C68.8134 2.68355 68.4146 2.9532 68.2589 3.35352L35.1209 88.5357C34.873 89.1729 35.335 89.8325 36.0293 89.8325L42.1646 89.8325C42.598 89.8325 42.9948 89.5662 43.1525 89.1694L77.0104 3.98803Z" fill="#80E1D6"/>
</svg>
