<svg width="124" height="81" viewBox="0 0 124 81" fill="none" xmlns="http://www.w3.org/2000/svg">
<path d="M32.843 0.278412C30.542 0.733803 29.0161 1.21196 26.8121 2.23659C24.2447 3.44337 22.9852 4.28584 20.8538 6.1757C18.7709 8.08833 17.2934 9.93265 16.0824 12.2324C15.0409 14.2361 1.45323 49.9385 0.871937 52.1927C-0.290646 56.8377 -0.290646 61.1183 0.871937 65.9227C1.45323 68.2224 2.32517 68.8827 3.85105 68.1313C4.79565 67.6759 4.89253 67.0839 4.33546 64.9664C3.3182 61.0045 3.51197 55.4943 4.81987 51.5096C5.81291 48.5041 18.7224 14.8053 19.3037 13.7351C21.8953 8.88526 26.7152 5.24215 32.407 3.89875L34.7079 3.35229H62.0044H89.3009L91.6018 3.89875C97.8265 5.37877 102.889 9.50003 105.311 15.033C105.722 15.9438 107.757 21.1807 109.84 26.6909C111.923 32.2011 113.812 36.8917 114.006 37.0966C114.926 38.0529 116.985 37.2787 116.985 36.0036C116.985 35.4799 110.082 16.9684 108.605 13.5075C107.224 10.2742 103.809 6.26677 100.612 4.12645C98.5773 2.76028 95.7435 1.46243 93.1277 0.688263L90.9479 0.0507202L62.731 0.00518036C39.6005 -0.0175858 34.2235 0.0279541 32.843 0.278412Z" fill="#80E1D6"/>
<path d="M30.5422 8.31567C29.0647 8.99875 28.7014 9.7046 28.6288 12.1409L28.5319 14.2813H26.4489C24.0511 14.2813 23.0581 14.6683 22.4041 15.8523C21.8955 16.7859 21.8955 22.1367 22.3799 23.2752C22.9612 24.5503 23.9784 24.9829 26.4732 24.9829H28.5803V26.85C28.5803 29.0814 29.0163 30.0832 30.2758 30.7891C31.0266 31.1989 31.5352 31.2445 34.5628 31.2445C37.6388 31.2445 38.0505 31.1989 38.6803 30.7663C39.8186 29.9922 40.2062 28.9675 40.2062 26.85V24.9829H42.2649C44.6627 24.9829 45.5589 24.6641 46.2613 23.5484C46.673 22.9109 46.7457 22.3872 46.7457 19.6776C46.7457 16.2622 46.5761 15.6247 45.3893 14.7594C44.8323 14.3496 44.3963 14.2813 42.4829 14.2813H40.2062V12.2548C40.2062 10.5471 40.1335 10.1372 39.6491 9.47691C38.7287 8.17905 37.8326 7.90582 34.3932 7.90582C31.9954 7.90582 31.1961 7.99689 30.5422 8.31567ZM36.5731 13.6892C36.5731 15.9207 36.6215 16.1028 37.2028 16.7631L37.8326 17.469H40.4726H43.1126V19.4955V21.5219L40.5452 21.613C38.0021 21.6813 37.9779 21.6813 37.2755 22.4327C36.5973 23.1386 36.5731 23.2296 36.5731 25.5521V27.9429H34.3932H32.2134V25.5521C32.2134 21.9773 31.7532 21.5675 27.8295 21.5675H25.6739V19.5182V17.469H28.2897C31.9228 17.4462 32.2134 17.173 32.2134 13.6209V11.3212H34.3932H36.5731V13.6892Z" fill="#80E1D6"/>
<path d="M87.9687 11.0943C87.1937 11.5497 86.4671 12.711 86.4671 13.5079C86.4671 14.2138 87.1937 15.3295 87.9445 15.7393C89.4462 16.559 91.408 16.0581 92.1347 14.6464C92.6191 13.6901 92.6191 13.3485 92.1831 12.3467C91.7714 11.4359 90.5361 10.639 89.4946 10.639C89.1071 10.639 88.4047 10.8439 87.9687 11.0943Z" fill="#80E1D6"/>
<path d="M60.4301 11.0715C57.2572 11.8457 54.9805 14.578 54.9805 17.5836C54.9805 20.1337 56.6759 22.5928 59.1464 23.6402C61.7622 24.7332 64.9835 24.2095 66.9696 22.3651C70.5058 19.018 69.3674 13.2118 64.814 11.4358C63.7483 11.0032 61.4231 10.821 60.4301 11.0715ZM63.9178 14.8968C65.0077 15.6937 65.4437 16.4223 65.4437 17.5836C65.4437 20.7941 61.084 22.0008 59.1706 19.314C57.1603 16.4906 61.0356 12.8931 63.9178 14.8968Z" fill="#80E1D6"/>
<path d="M81.6956 17.1273C80.751 17.5144 79.9276 18.6756 79.9276 19.6319C79.9276 20.611 80.7753 21.7723 81.7441 22.1594C82.8098 22.5692 83.1731 22.5692 84.1904 22.1138C86.3218 21.1575 86.2733 18.0836 84.1419 17.1273C83.1973 16.7175 82.7129 16.7175 81.6956 17.1273Z" fill="#80E1D6"/>
<path d="M95.2593 16.9454C94.9687 16.9909 94.3874 17.4008 93.9756 17.8334C92.6919 19.1996 93.1279 21.3627 94.8476 22.1368C95.8164 22.5695 96.2039 22.5695 97.2454 22.1596C98.2142 21.7725 99.0619 20.6113 99.0619 19.6322C99.0619 18.6531 98.2142 17.4919 97.2454 17.1048C96.3977 16.786 96.2281 16.7633 95.2593 16.9454Z" fill="#80E1D6"/>
<path d="M87.5813 23.8447C86.5883 24.6872 86.2976 25.7574 86.8062 26.8958C87.218 27.8294 88.4532 28.6263 89.4947 28.6263C90.5362 28.6263 91.7714 27.8294 92.1832 26.9186C92.6192 25.9168 92.6192 25.5752 92.1347 24.6189C91.3355 23.025 89.0345 22.638 87.5813 23.8447Z" fill="#80E1D6"/>
<path d="M46.7696 30.1287C46.043 30.3108 44.9289 30.7207 44.2991 31.0622C42.8701 31.7681 40.7145 33.8629 39.9879 35.1835C38.4862 37.9386 38.3651 41.8322 39.7215 42.5152C40.4481 42.8795 41.2716 42.7885 41.8529 42.2875C42.2889 41.9005 42.3857 41.5589 42.3857 40.3749C42.3857 38.0524 42.9428 36.709 44.5171 35.229C45.5344 34.2955 46.261 33.8173 47.2056 33.5213C50.7902 32.4056 54.9319 34.2727 56.0703 37.5287C57.2087 40.7164 55.9008 43.9497 52.8732 45.6346C51.3957 46.4316 48.9737 46.6137 46.9392 46.0217C45.6313 45.6574 45.4133 45.6574 44.8562 45.9534C44.4929 46.1356 44.1054 46.5682 43.9601 46.9097C43.3303 48.6402 45.8735 49.8698 49.9183 49.7331C52.0497 49.6876 52.413 49.5965 54.06 48.8451C56.2883 47.7977 58.1048 46.0673 59.1705 43.9497C59.8971 42.4925 59.9456 42.2648 59.9456 39.7829C59.9456 37.2555 59.9214 37.0961 59.1221 35.5706C56.7969 31.1305 51.6864 28.8763 46.7696 30.1287Z" fill="#80E1D6"/>
<path d="M73.8722 30.1286C71.0384 30.8572 68.5195 32.8154 67.2116 35.32C64.5231 40.4887 66.6303 46.2721 72.1283 48.845C73.6784 49.5509 74.187 49.6647 76.052 49.7558C79.9273 49.938 83.2939 48.458 85.3285 45.6801C88.356 41.536 87.9927 36.6406 84.4081 32.9975C81.6954 30.2424 77.699 29.1723 73.8722 30.1286ZM78.8858 33.5212C80.4359 33.9538 82.1798 35.3883 83.0033 36.9139C83.8995 38.5305 83.9479 40.9896 83.1002 42.6062C81.8407 45.0198 79.5156 46.3859 76.6575 46.3859C74.6472 46.3859 73.2182 45.8622 71.8619 44.6099C68.5679 41.6271 69.0039 36.7317 72.758 34.3637C74.6957 33.1569 76.6091 32.8837 78.8858 33.5212Z" fill="#80E1D6"/>
<path d="M117.227 41.6729C116.912 41.8323 116.525 42.2422 116.404 42.5837C116.137 43.2668 116.113 43.1302 118.39 49.3462C119.068 51.1678 119.794 53.6041 119.988 54.7881C121.151 61.3002 119.576 68.1082 115.604 73.755C113.691 76.4874 111.22 77.6941 107.902 77.5348C105.601 77.3981 104.051 76.8061 102.574 75.44C102.017 74.9163 98.5531 70.5673 94.8958 65.7402C91.1659 60.8448 87.6539 56.473 86.9757 55.881C85.474 54.5604 83.7544 53.7863 81.623 53.4675C79.4674 53.1259 44.5172 53.1259 42.3858 53.4675C40.2544 53.7863 38.0988 54.8336 36.6456 56.2453C35.9674 56.9057 32.5039 61.2774 28.9435 65.9679C25.3831 70.6584 21.9922 74.939 21.4109 75.4627C19.8608 76.8517 18.4318 77.4209 16.2035 77.5348C12.958 77.7169 10.657 76.6468 8.52561 73.96C7.36303 72.5027 7.16927 72.3433 6.41843 72.3433C5.37695 72.3433 4.6019 73.0036 4.6019 73.8917C4.6019 74.7341 6.58798 77.4209 7.99276 78.4683C9.27645 79.4474 11.4321 80.4492 12.8369 80.7452C15.4527 81.3145 18.8678 80.9046 21.314 79.7434C23.4696 78.7188 24.9955 77.0111 31.7288 68.131C35.3377 63.3722 38.8254 59.0004 39.4794 58.4312C41.4412 56.678 40.4966 56.7463 62.3677 56.7463H81.7441L82.8582 57.27C83.4637 57.5432 84.3599 58.158 84.8201 58.6361C85.3045 59.0915 88.6469 63.3722 92.28 68.131C95.9131 72.9126 99.425 77.3071 100.152 77.9446C102.598 80.176 105.577 81.1323 109.234 80.9274C114.175 80.6542 117.397 78.2634 120.473 72.571C122.992 67.9488 123.888 64.3285 123.888 59.0232C123.888 56.0632 123.767 54.9247 123.306 52.9893C122.652 50.1431 119.819 42.5609 119.213 42.0372C118.608 41.468 117.905 41.3541 117.227 41.6729Z" fill="#80E1D6"/>
</svg>
