<svg width="97" height="94" viewBox="0 0 97 94" fill="none" xmlns="http://www.w3.org/2000/svg">
<path d="M6.74286 5.64706V24L2 22.5882V0H85L73.1429 5.64706H6.74286Z" fill="#80E1D6"/>
<path d="M2 94V46.4L6.86486 67.4V87H87.1351V25.4L92 17V94H2Z" fill="#80E1D6"/>
<path d="M43.8418 78.1241L45.4859 86H53.7062L49.8701 69.0365L50.9661 68.4307L44.3898 39.9562C50.0893 39.9562 66.4934 47.6302 73.9831 51.4672L78.9153 41.7737L50.9661 34.5037L80.0113 38.7445L84.3955 29.6569H49.8701L84.3955 26.6277L90.4237 16.3285L48.774 24.2044L93.1638 11.4818L97 3L40.0057 18.7518V15.7226L29.0452 18.7518L30.6893 21.1752L5.48023 27.2336L4.9322 26.0219L0 27.2336L9.31638 69.0365L13.7006 67.8248V66.0073L24.661 62.9781C22.4689 48.9226 30.6893 43.3893 35.0734 42.3796L41.1017 70.854H42.1977L43.2938 76.3066C44.609 76.3066 44.2071 77.5182 43.8418 78.1241Z" fill="#80E1D6"/>
</svg>
