<svg width="126" height="94" viewBox="0 0 126 94" fill="none" xmlns="http://www.w3.org/2000/svg">
<g clip-path="url(#clip0_90_340)">
<path fill-rule="evenodd" clip-rule="evenodd" d="M126.084 30.1208V64.9456C124.229 81.2143 115.766 89.0592 96.913 89.8205H63.0421H30.7918C12.935 89.8476 1.74931 83.4284 0 64.9456V30.1208C1.08959 15.1481 7.13935 4.57877 30.7918 4.0022H96.913C121.041 3.76844 125.566 22.2598 126.084 30.1208ZM45.7015 60.9037V33.2304C45.7567 30.2019 46.8159 29.8409 50.2392 31.0538L81.031 45.9788C82.5628 47.1976 82.4177 47.8435 81.031 49.0881L49.9151 63.3912C46.8219 64.492 45.8681 63.9936 45.7015 60.9037Z" fill="#80E1D6"/>
</g>
<defs>
<clipPath id="clip0_90_340">
<rect width="126" height="94" fill="white"/>
</clipPath>
</defs>
</svg>
