<svg width="797" height="841" viewBox="0 0 797 841" fill="none" xmlns="http://www.w3.org/2000/svg">
<rect x="356.474" y="660.992" width="223.854" height="179.019" fill="#202A35"/>
<path d="M732.699 839.632C735.062 835.145 739.876 832.922 743.961 829.931C755.008 821.84 765.112 812.864 773.389 802.001C774.534 800.498 775.768 798.188 778.057 798.8C780.063 799.336 779.811 801.758 780.263 803.491C780.725 805.257 780.908 807.266 781.919 808.692C786.12 814.619 783.227 819.434 779.626 824.076C775.775 829.042 771.43 833.642 768.059 839.319C756.38 839.632 744.76 839.632 732.699 839.632Z" fill="#1D2833"/>
<path d="M374.233 839.896C282.745 840.134 191.49 840.134 99.7951 840.134C97.5526 838.754 97.2735 836.805 97.3312 834.776C97.6742 822.724 96.5683 810.705 96.1434 798.682C95.3535 776.322 95.1762 753.928 92.9092 731.61C92.1154 723.796 91.4631 715.862 91.9613 707.891C92.1705 704.544 91.5752 700.942 90.6602 697.146C88.7525 687.722 88.8241 678.449 88.6993 669.47C88.4266 676.897 86.7966 684.407 85.2212 691.869C83.0515 702.148 82.8157 712.696 79.9525 723.186C75.2722 727.429 69.7894 726.183 64.6358 725.993L64.5024 725.988C61.3888 725.873 58.7896 725.777 57.2014 729.03C56.3404 730.794 53.9388 731.665 53.002 730.166C50.5408 726.227 45.8902 726.909 42.4231 724.494C41.5543 723.79 41.3363 723.129 41.2706 722.048C41.313 720.997 41.4606 720.313 41.6254 719.282C45.3055 704.356 50.5583 690.285 55.8731 676.24C62.2768 659.318 69.2269 642.616 77.6797 626.547C81.4009 619.473 85.5338 612.631 89.8441 605.883C94.1016 599.218 101.28 596.007 107.484 591.742C116.962 585.227 127.186 579.801 137.552 574.773C164.767 561.573 191.186 546.907 218.211 533.362C223.083 530.919 227.636 527.902 232.45 525.341C234.384 524.312 236.281 523.168 238.917 524.236C241.354 529.694 238.721 534.656 238.087 539.663C236.97 548.474 236.505 557.269 236.935 566.106C237.162 570.782 238.991 574.972 242.161 578.57C254.928 593.059 270.918 601.995 290.051 606.15C300.322 608.381 310.638 609.423 321.412 610.106C323.606 611.352 325.04 614.594 328.067 611.187C331.26 610.444 334.086 609.506 337.439 609.905C341.253 611.981 344.48 611.778 348.405 610.417C354.799 608.201 361.43 606.411 368.246 605.605C372.268 605.129 375.881 603.164 380.019 602.803C382.361 602.598 380.879 599.244 382.314 597.403C382.901 596.517 383.472 596.109 384.485 595.717C391.306 595.644 396.894 592.837 402.353 590.008C412.825 584.581 423.963 580.58 434.504 575.295C441.437 571.818 447.854 567.291 455.208 564.729C464.866 561.363 471.231 553.971 478.732 547.848C490.251 538.448 502.662 530.678 518.84 532.5C521.223 532.769 523.464 533.276 525.586 534.273C534.467 538.444 544.149 537.962 553.583 538.892C555.6 539.09 557.661 538.817 559.682 539.061C561.419 539.27 563.406 539.66 563.446 541.768C563.49 544.058 561.519 544.65 559.553 544.922C559.308 544.956 559.066 544.955 558.827 544.934C565.921 546.446 572.731 548.251 579.142 552.46C584.019 555.662 589.211 559.197 595.107 560.907C598.719 561.955 599.933 565.543 602.907 567.31C608.508 570.637 613.992 574.183 618.442 579.008C619.987 580.684 622.266 581.011 624.289 581.775C630.579 584.15 631.024 584.923 629.438 591.052C629.325 591.49 629.365 591.964 629.334 592.765C628.916 595.062 627.453 596.228 625.954 597.342C615.903 604.805 608.027 614.357 600.271 623.866C592.901 632.902 585.588 642.06 579.503 652.044C570.493 666.828 560.712 681.194 555.128 697.747C553.524 702.501 551.001 706.956 549.625 711.829C549.161 713.471 548.237 714.896 546.456 716.093C542.654 717.229 539.73 715.979 536.913 714.127C534.453 712.509 532.566 710.171 529.583 708.604C526.22 704.247 527.255 699.104 528.127 695.419L528.802 692.665C529.547 689.935 530.924 687.595 531.259 684.822C531.257 682.899 531.012 681.313 530.967 679.701C530.938 681.704 528.664 682.793 528.802 685.174L472.633 789.059L374.233 839.896Z" fill="#282F37"/>
<path d="M437.589 24.95C437.89 26.4269 438.04 27.7412 438.845 28.9824C447.748 42.7182 455.406 57.1674 465.725 70.1068C472.483 78.5815 477.328 88.4945 483.237 97.6354C487.235 103.818 490.575 110.377 494.963 116.346C497.639 119.987 498.611 124.489 499.018 128.888C500.254 142.271 500.216 155.641 499.339 169.094C498.697 178.962 498.488 188.901 498.15 198.811C498.093 200.491 498.576 202.353 497.993 203.823C495.225 210.811 497.872 215.805 503.633 219.838C510.602 224.717 511.223 231.816 510.32 239.171C507.721 260.327 507.204 281.961 499.309 302.084C494.677 313.89 489.493 326.079 476.386 332.137C473.8 333.333 472.569 335.49 472.698 338.482C472.888 342.908 472.765 347.347 472.783 352.208C472.996 360.254 471.238 377.526 472.698 385.12C473.339 388.458 472.567 391.312 469.072 393.265C466.01 394.976 458.694 404.743 458.995 408.53C460.07 422.036 461.737 429.651 461.817 432.858C461.952 438.292 465.079 443.247 466.032 448.642C466.728 452.586 476.612 458.576 480.158 460.858C486.526 464.958 491.449 467.16 498.177 470.933C502.586 473.405 507.449 474.566 511.899 476.819C527.41 484.672 543.005 492.366 558.581 500.097C560.382 500.991 562.104 502.128 564.57 502.287C566.684 501.894 568.301 502.266 569.891 503.059C582.815 509.511 595.992 515.465 608.94 521.872C610.346 522.568 611.723 523.276 612.695 524.998C613.755 526.827 615.177 527.717 616.732 528.495C623.376 531.816 629.961 535.252 636.647 538.491C653.498 546.654 670.511 554.507 686.673 563.959C687.199 564.266 687.829 564.404 688.74 564.677C691.668 564.843 693.847 565.885 695.942 567.36C705.659 574.195 714.584 581.779 721.155 591.721C722.419 593.633 723.706 595.592 725.91 597.222C730.678 605.837 735.205 614.179 738.478 623.138C740.626 629.019 743.538 634.623 745.651 640.544C750.588 654.385 754.654 668.5 759.446 682.373C763.499 694.105 767.272 705.911 770.473 717.859C773.875 730.559 777.937 743.067 781.49 756.098C784.899 773.367 791.109 789.505 795.647 806.095C798.12 815.135 797.665 823.278 790.356 830.081C787.537 832.704 787.746 836.403 786.211 839.849C780.302 840.134 774.639 840.134 768.535 840.134C766.412 837.996 768.025 836.396 769.119 834.821C771.835 830.912 775.026 827.352 777.993 823.627C781.44 819.298 783.614 814.823 780.08 809.451C779.165 808.062 778.859 806.328 778.504 804.685C777.86 801.702 776.445 801.945 774.867 803.952C770.678 809.281 766.135 814.295 761.108 818.878C752.437 826.782 743.443 834.279 732.614 839.938C730.124 840.134 727.894 840.134 725.247 840.134C723.367 838.763 720.241 841.051 719.712 838.305C719.247 835.89 721.627 834.723 723.365 833.458C724.366 832.729 725.238 831.851 726.553 830.938C732.75 827.257 738.352 823.328 743.328 818.715C751.614 811.033 759.505 802.949 767.653 795.123C771.715 791.223 773.618 787.18 771.737 781.304C767.685 768.644 764.652 755.689 760.993 742.905C756.792 728.227 753.404 713.292 749.136 698.636C744.958 684.289 740.63 669.947 735.18 655.943C730.744 644.544 726.475 633.067 722.011 621.677C716.867 608.554 709.445 596.961 697.795 588.015C691.159 582.92 684.866 577.502 677.276 573.747C675.048 572.644 672.962 571.269 670.146 570.594C669.595 570.379 669.383 570.274 668.895 569.953C667.608 567.464 665.167 567.285 663.284 566.346C646.149 557.805 629.041 549.226 612.236 540.062C600.499 533.662 588.543 527.636 576.299 522.171C566.048 517.595 556.409 511.833 546.215 507.13C538.308 503.484 530.107 500.406 522.742 495.693C520.228 494.085 518.229 494.598 516.272 496.863C506.897 507.715 497.27 518.35 487.244 528.643C478.285 537.841 469.153 546.826 459.243 555.082C443.059 568.567 424.946 578.974 406.017 588.254C399.466 591.466 393.069 594.886 385.627 596.835C384.785 597.037 384.281 597.21 383.587 597.569C376.269 603.884 366.992 604.955 358.457 607.695C354.502 608.965 350.223 609.275 346.383 611.018C343.967 612.115 341.489 611.713 338.629 611.531C335.075 611.829 331.897 612.134 328.315 612.438C326.168 612.971 324.44 613.336 322.55 611.812C303.554 612.081 285.609 608.645 268.566 601.2C255.736 595.595 245.59 586.58 237.411 575.573C235.153 572.534 234.929 568.455 234.756 564.581C234.162 551.247 236.024 538.155 238.553 524.737C237.121 520.99 239.188 517.821 239.338 513.696C232.797 517.313 226.517 520.254 220.455 523.569C205.158 531.935 189.532 539.696 174.143 547.889C148.587 561.494 122.3 573.764 97.1943 588.189C88.3331 593.281 81.9605 600.46 76.4798 608.919C59.492 635.135 50.6986 664.428 42.0267 693.807C36.0487 714.059 32.2981 734.878 25.9412 755.016C23.775 761.878 25.5383 766.45 31.5402 770.401C42.8751 782.527 55.0788 793.266 67.4755 803.806C68.1781 804.404 68.9163 805.227 69.8974 804.967C71.3169 804.591 70.9675 803.244 70.9872 802.247C71.1635 793.333 69.6678 784.64 67.5457 775.994C64.5516 763.795 62.9038 751.4 62.5674 738.85C62.5387 737.78 62.5664 736.708 62.6523 735.64C62.7782 734.073 63.0236 732.262 64.7252 731.858C66.8055 731.364 67.7177 733.188 68.3498 734.742C71.5763 742.674 74.8141 750.611 75.4328 758.091C73.9214 751.445 74.9351 743.723 76.1114 735.636C76.2286 733.006 76.2234 730.732 76.7826 728.12C76.7732 726.368 77.026 725.104 78.3844 723.831C79.9187 708.226 82.9665 693.172 85.54 678.044C86.8031 670.619 87.5038 663.103 88.459 655.628C88.8448 655.625 89.2307 655.621 89.6165 655.617C90.3426 668.787 91.0687 681.958 91.8001 695.545C93.017 712.661 89.7673 729.079 88.5761 745.628C88.1055 752.166 87.4591 758.721 87.4091 765.264C87.2551 785.404 86.9535 805.547 87.3331 825.689C87.3763 827.98 87.487 830.249 87.8661 832.53C88.2608 834.904 88.7341 837.414 86.4895 839.817C83.3359 840.134 80.4854 840.134 77.2078 840.134C74.4478 838.137 74.138 835.395 73.9493 832.64C73.5329 826.564 71.247 821.934 65.7433 818.216C51.6107 808.668 39.1608 797.111 26.6689 785.154C24.0894 782.105 22.2168 778.938 19.5718 775.774C17.5198 779.738 16.0957 783.626 15.248 787.726C14.9122 789.35 15.656 790.696 16.5229 791.981C18.6566 795.145 20.7347 798.345 23.2732 801.631C29.8076 810.922 38.1588 817.875 47.3064 824.025C52.6848 827.64 58.2097 831.043 63.5464 834.718C65.2981 835.924 67.4329 836.908 66.6471 839.878C60.1443 840.134 53.8542 840.134 47.1233 840.134C37.7337 838.267 30.0229 834.269 23.9196 827.516C21.8343 825.208 21.1091 826.481 20.1919 828.601C18.6224 832.23 18.8285 836.474 15.8738 839.907C12.4825 840.134 9.32104 840.134 5.7287 840.134C3.55618 838.57 3.81215 836.669 4.18656 834.655C5.05114 830.004 6.6365 825.57 8.50612 821.252C10.1902 817.363 11.2646 813.576 9.08003 809.222C8.33006 803.356 4.17896 799.408 2.06529 794.494C0.467162 790.779 -1.52762 788.116 1.8205 783.548C5.72097 778.227 7.92167 771.513 9.9401 765.126C13.9926 752.303 19.0552 739.73 21.6019 726.509C24.5564 711.17 29.2684 696.298 33.35 681.258C36.6283 669.177 41.3726 657.557 45.3663 645.701C50.9162 629.224 59.5574 614.202 68.4708 599.326C73.3957 591.107 80.8149 585.264 88.7041 579.934C97.4551 574.023 106.898 569.251 116.24 564.358C145.739 548.908 175.214 533.399 205.012 518.512C221.265 510.392 237.224 501.666 254.006 494.553C258.609 492.602 259.745 489.311 256.718 485.894C247.657 475.664 243.256 462.931 236.631 451.397C228.069 436.492 221.116 420.814 212.949 405.72C208.649 397.772 206.212 389.047 204.675 380.05C201.801 363.22 199.219 346.349 195.661 329.612C192.085 312.792 187.299 295.975 187.96 278.616C188.326 269.011 187.971 259.852 184.112 250.9C182.578 247.343 182.657 243.425 183.568 239.607C184.362 236.282 183.872 232.903 183.985 229.122C184.452 223.243 183.494 218.164 180.897 213.189C177.627 206.925 176.203 199.949 173.819 193.338C167.116 174.752 160.678 156.057 153.31 137.722C147.062 122.173 151.004 107.814 156.537 93.339C157.686 90.3318 158.971 87.3735 160.094 84.3575C161.366 80.9418 163.421 78.3833 166.691 76.37C173.302 72.2994 179.375 67.436 186.132 63.5379C188.965 61.9029 191.675 60.1055 194.826 59.0651C205.071 55.6816 211.003 47.1711 217.444 39.7376C222.65 33.7303 228.445 29.5395 235.891 27.1673C254.203 21.3331 272.225 14.5664 290.928 9.98471C305.493 6.41667 320.217 3.46293 334.889 0.314193C338.823 -0.530117 342.739 0.508289 346.518 1.30157C371.152 6.47167 395.79 11.6435 419.986 18.5905C421.788 19.108 423.585 19.7802 425.431 19.9888C429.895 20.4932 433.914 21.8699 437.589 24.95Z" fill="#111E28"/>
<path d="M727.914 831.623C726.196 834.821 722.672 835.635 720.751 838.127C721.528 839.791 723.371 838.808 724.588 839.93C674.646 840.134 624.463 840.134 573.839 840.134C570.002 836.946 568.327 832.643 567.056 828.547C561.545 810.795 553.315 794.125 546.217 777.008C544.782 773.544 543.96 770.027 544.15 766.291C545.377 742.208 549.076 718.653 559.153 696.353C566.737 679.568 574.904 663.012 585.285 647.772C595.047 633.441 605.442 619.428 617.463 606.715C620.86 603.123 624.221 599.442 629.457 597.541C630.928 597.297 632.082 597.962 633.074 597.654C641.672 594.979 645.861 600.288 649.532 606.324C652.475 611.163 654.88 616.321 658.712 620.617C661.311 623.531 660.599 627.643 662.644 630.817C665.806 635.724 667.901 641.188 670.707 646.287C675.387 654.791 677.466 664.307 681.646 673.004C681.846 673.419 681.994 673.861 682.244 674.249C687.033 681.664 689.418 689.668 689.145 698.515C688.861 707.735 692.788 716.084 695.753 724.547C699.59 735.5 704.083 746.23 707.638 757.288C708.876 761.139 707.636 765.783 709.585 768.919C714.084 776.156 713.817 784.57 716.961 792.045C719.746 798.665 722.467 805.311 725.197 811.951C727.344 817.173 728.543 822.722 729.123 828.355C729.238 829.468 728.84 830.46 727.914 831.623Z" fill="#282F37"/>
<path d="M543.74 840.134C540.294 836.727 536.171 834.718 532.563 832.075C528.638 829.198 525.108 826.017 522.384 822.035C512.758 807.961 503.353 793.76 496.487 778.136C496.028 777.091 495.011 776.051 496.198 774.539C498.226 775.802 499.241 777.878 500.706 779.575C511.766 792.395 521.008 806.688 533.59 818.273C534.388 819.008 535.148 819.782 535.958 820.503C536.54 821.022 537.241 821.562 537.995 820.928C538.688 820.346 538.534 819.479 538.095 818.827C528.61 804.759 528.95 788.492 527.36 772.693C526.567 764.813 526.048 756.883 525.93 748.968C525.816 741.356 526.055 733.704 526.783 726.129C527.15 722.307 527.087 718.513 527.328 714.712C527.43 713.109 526.748 711.282 528.837 709.926C532.71 713.044 530.486 717.648 532.023 721.372C532.133 721.639 532.093 721.978 532.073 722.28C531.388 732.683 533.042 742.862 535.155 752.999C535.353 753.949 535.618 754.903 535.505 755.262C535.041 743.312 540.119 731.801 542.843 719.825C543.223 718.158 543.969 716.659 545.837 715.507C550.235 704.759 554.004 694.117 558.815 683.856C564.225 672.318 571.125 661.627 577.939 650.89C587.238 636.239 598.261 622.82 609.785 609.812C615.09 603.824 620.841 598.191 627.773 593.424C629.166 589.158 632.795 587.33 635.849 585.068C644.064 578.983 652.534 573.262 662.12 569.356C664.247 568.489 666.443 567.375 669.064 569.083C669.333 569.308 669.337 569.312 669.337 569.312C670.747 571.189 669.423 572.455 668.216 573.628C666.454 575.339 664.624 576.961 662.412 578.175C653.028 583.321 644.355 589.502 635.867 595.925C634.188 597.195 632.338 597.772 630.118 598.496C617.203 608.227 608.133 620.783 598.571 633.036C586.468 648.546 576.927 665.37 568.005 682.734C562.578 693.295 557.845 704.048 554.277 715.226C550.137 728.193 547.894 741.614 547.027 755.215C546.853 757.948 546.454 760.668 546.119 763.389C544.964 772.769 549.455 780.795 553.372 788.627C560.551 802.982 565.19 818.199 570.818 833.083C571.626 835.218 572.508 837.326 573.377 839.79C572.98 840.134 572.562 840.134 571.83 840.134C569.106 839.162 567.465 837.484 566.228 835.226C562.271 828.002 557.463 821.23 554.042 813.498C557.933 820.446 558.436 828.264 561.284 835.355C561.854 836.774 561.89 838.368 560.457 839.903C554.88 840.134 549.53 840.134 543.74 840.134Z" fill="#111E28"/>
<path d="M86.6233 840.133C84.7595 827.509 84.6112 814.786 84.7544 802.154C85.0813 773.316 85.2348 744.43 89.5928 715.781C90.5555 709.452 90.8846 703.032 91.6554 696.308C93.5872 699.524 93.095 703.473 93.3198 707.175C94.826 731.988 97.3203 756.74 97.5799 781.634C97.7803 800.852 98.7832 820.062 99.3917 839.704C95.2562 840.133 91.1583 840.133 86.6233 840.133Z" fill="#812E2E"/>
<path d="M66.8653 840.134C64.1249 835.599 59.2091 834.13 55.3227 831.669C44.3005 824.689 33.8803 817.104 25.0438 807.553C23.7637 806.17 22.705 804.715 22.1923 802.549C20.4078 795.658 21.4903 789.642 26.1343 784.164C31.485 784.758 33.9429 788.93 36.9516 791.888C43.3515 798.181 50.0894 804.014 57.2738 809.399C61.8558 812.834 66.1574 816.615 71.0787 819.631C74.6926 821.846 74.6162 825.961 75.5521 829.385C76.4265 832.584 76.4036 836.017 76.7781 839.741C73.6191 840.134 70.4576 840.134 66.8653 840.134Z" fill="#1F2934"/>
<path d="M16.0849 840.134C15.5859 834.208 18.3712 829.002 20.0679 823.522C20.6548 821.626 21.7221 821.936 22.61 823.236C28.3663 831.661 37.744 835.073 46.489 839.883C36.6303 840.134 26.578 840.134 16.0849 840.134Z" fill="#D46A54"/>
<path d="M560.663 840.134C557.775 831.373 555.377 822.596 552.818 813.865C552.261 811.965 551.311 810.205 552.267 807.865C558.663 818.58 564.933 829.084 571.36 839.86C568.044 840.134 564.57 840.134 560.663 840.134Z" fill="#252D36"/>
<path d="M669.313 568.976C661.434 570.51 654.872 574.693 648.403 578.777C641.53 583.116 635.11 588.139 628.217 593.013C627.945 592.552 627.756 591.86 627.983 591.341C630.549 585.465 626.453 584.192 622.073 583.166C619.219 582.497 617.218 580.931 615.282 578.721C611.937 574.904 606.83 573.004 603.193 569.566C597.604 564.283 590.756 560.96 584.22 557.319C575.051 552.21 565.989 546.263 554.71 546.283C554.103 546.284 553.466 546.099 552.893 545.877C551.884 545.486 550.52 545.086 550.622 543.876C550.745 542.433 552.245 542.694 553.27 542.724C554.979 542.774 556.704 542.891 558.384 543.187C560.031 543.476 561.379 543.388 562.386 541.843C560.978 540.305 559.308 540.87 557.857 540.885C549.555 540.97 541.349 539.956 533.144 538.936C531.765 538.765 530.311 538.458 529.098 537.833C520.583 533.45 512.068 533.7 502.882 536.195C492.959 538.89 485.535 544.858 478.452 551.385C469.501 559.634 459.424 565.819 447.993 570.231C442.856 572.215 438.378 575.605 433.316 577.991C424.68 582.063 415.792 585.503 407.109 589.414C402.907 591.306 398.642 593.148 394.618 595.53C392.208 596.956 388.756 596.704 385.531 597.036C392.427 593.149 399.842 590.006 406.941 586.156C421.838 578.078 436.827 570.086 450.258 559.877C463.444 549.854 475.32 538.344 486.704 526.293C496.122 516.323 505.811 506.544 514.245 495.82C518.307 490.655 521.472 492.108 525.094 494.588C533.894 500.611 544.19 503.592 553.555 508.464C569.261 516.634 585.102 524.577 601.109 532.168C614.75 538.638 627.379 546.905 641.256 552.953C649.947 556.741 657.675 562.443 666.662 565.743C667.991 566.231 669.225 566.981 669.313 568.976Z" fill="#1F2934"/>
<path d="M31.0485 771.195C27.288 770.119 25.4927 767.037 22.8697 764.922C21.7457 764.016 22.0957 762.669 22.4146 761.481C33.2793 721.005 41.8332 679.888 57.522 640.749C63.1986 626.588 71.1577 613.593 79.4454 600.813C84.7162 592.686 93.0905 587.826 101.497 583.382C123.937 571.519 146.538 559.948 169.047 548.212C191.559 536.475 214.031 524.666 236.542 512.928C238.274 512.025 239.807 510.582 242.477 510.551C241.441 515.138 240.841 519.617 238.782 524.094C212.958 537.864 187.46 551.56 161.72 564.81C144.004 573.93 126.099 582.646 108.966 592.854C97.1693 599.883 89.0605 609.355 82.7143 621.192C66.3093 651.79 54.2661 683.992 44.0343 716.927C43.8546 717.505 43.8323 718.13 43.7574 719.081C43.6048 720.045 43.3912 720.651 43.0647 721.521C42.6267 722.196 42.4069 722.633 42.1557 723.312C42.6031 724.13 43.0063 724.742 43.1233 725.862C43.0554 726.47 42.9918 726.708 42.785 727.289C39.579 739.885 35.9503 752.016 34.423 764.604C34.135 766.978 33.6599 769.471 31.0485 771.195Z" fill="#812E2E"/>
<path d="M30.743 771.629C33.734 757.542 35.4305 743.472 40.0262 730.027C40.4169 728.884 40.8703 727.762 41.5497 726.406C41.9932 726.338 42.174 726.501 42.3465 726.672C42.523 726.847 42.4728 726.785 42.0279 726.31C41.882 725.483 41.9048 724.834 42.0259 723.87C46.0968 725.321 51.5644 723.966 53.9542 729.171C54.4194 730.185 55.8341 729.437 55.7596 728.361C55.2827 721.473 60.8705 723.903 63.7634 724.004C68.5302 724.17 73.2215 724.065 78.3001 723.559C78.6553 724.82 78.6471 726.098 78.6289 727.76C76.201 730.07 75.77 732.371 77.4804 735.252C77.2129 743.938 76.7203 752.404 76.2278 760.87C75.7818 760.93 75.3359 760.989 74.89 761.049C71.8624 751.671 69.7182 741.978 64.7626 731.804C64.1226 742.829 65.3778 752.388 66.8678 761.93C69.0961 776.199 74.0934 790.09 73.0122 804.807C72.9056 806.258 73.7782 808.237 72.1488 809.014C70.483 809.808 69.3598 807.891 68.2991 806.992C55.2147 795.907 41.8561 785.089 30.743 771.629Z" fill="#202A35"/>
<path d="M338.496 611.739C343.755 609.925 349.194 608.067 354.772 606.785C364.357 604.583 373.328 600.656 383.03 597.764C383.26 598.656 382.665 599.89 383.058 600.401C386.579 604.983 382.78 604.519 379.919 605.151C368.557 607.658 356.697 608.361 346.065 613.545C342.908 615.085 341.116 612.718 338.496 611.739Z" fill="#1F2934"/>
<path d="M322.314 611.882C323.957 611.626 325.699 611.257 327.623 612.23C325.932 615.179 324.026 616.362 322.314 611.882Z" fill="#1F2934"/>
<path d="M531.268 694.897C530.359 694.288 530.522 693.712 531.77 693.296C531.829 693.735 531.645 694.223 531.268 694.897Z" fill="#252D36"/>
<path d="M43.0663 721.521C43.0102 721.146 43.1741 720.533 43.558 719.675C43.6141 720.047 43.4501 720.665 43.0663 721.521Z" fill="#202A35"/>
<path d="M86.262 136.875C86.1819 136.909 86.352 136.644 86.352 136.644C86.352 136.644 86.342 136.84 86.262 136.875Z" fill="#192B36"/>
<path d="M85.2436 137.827C85.3874 137.565 85.5772 137.342 85.9965 137.031C86.1822 136.909 86.1863 136.912 86.1876 136.914C86.0412 137.173 85.8515 137.396 85.4357 137.709C85.2515 137.834 85.2457 137.83 85.2436 137.827Z" fill="#192B36"/>
<path d="M205.379 129.726C205.989 127.843 206.432 126.365 207.093 124.628C218.166 124.516 227.93 129.076 238.169 131.697C241.338 132.508 244.473 133.501 247.641 134.341C253.824 135.981 259.641 135.58 265.91 133.367C281.926 127.713 297.438 120.66 314.062 116.636C320.776 115.011 327.489 113.983 334.409 113.765C351.422 113.226 368.444 112.765 385.402 111.191C395.017 110.299 397.079 112.659 399.711 121.464C404.169 136.374 400.968 150.842 398.661 165.36C396.387 179.667 394.173 194.001 391.152 208.192C390.798 209.854 390.481 211.489 389.051 213.118C386.889 214.702 384.808 214.429 382.919 213.699C374.142 210.308 365.236 210.651 356.183 212.34C342.83 214.832 329.535 217.655 316.127 219.815C310.636 220.7 308.901 224.408 306.518 228.521C302.742 230.779 299.125 232.557 296.172 235.39C293.936 237.534 293.868 239.506 295.795 241.778C299.595 246.258 302.134 251.551 305.575 256.28C308.999 260.985 308.428 263.412 304.993 268.281C299.201 276.49 297.034 286.028 294.977 295.602C293.328 303.276 292.37 310.888 294.172 318.688C295.011 322.322 296.76 323.767 300.677 323.281C304.541 322.801 308.484 323.255 312.39 323.3C316.464 323.347 318.572 325.481 318.265 328.806C317.978 331.909 315.739 333.539 311.874 333.2C303.972 332.507 296.355 334.07 288.817 336.002C285.107 336.953 281.479 337.4 277.338 336.567C272.577 334.695 271.221 332.797 271.808 327.819C272.148 324.934 272.595 321.885 274.872 319.157C276.905 316.793 277.595 314.443 277.638 311.703C277.779 302.82 279.763 294.148 281.132 285.41C282.438 277.079 283.012 268.715 282.542 260.313C282.307 256.102 280.84 252.309 277.274 249.495C273.483 246.502 271.243 242.059 267.057 238.94C266.573 238.617 266.376 238.498 265.872 238.222C265.19 237.818 264.837 237.544 264.261 237.023C263.852 236.663 263.69 236.518 263.279 236.156C262.859 235.796 262.688 235.652 261.982 235.058C261.268 234.443 261.089 234.277 260.657 233.836C257.778 229.159 253.924 227.651 248.699 227.867C240.303 228.215 231.88 228.009 223.47 227.941C218.791 227.902 214.142 227.976 209.163 229.122C203.016 227.762 202.464 222.894 201.976 218.654C200.086 202.219 200.172 185.728 201.503 169.243C201.884 164.526 202.233 159.763 202.298 155.08C202.415 146.621 203.746 138.391 205.379 129.726Z" fill="#E9AD7C"/>
<path d="M276.73 335.519C285.02 335.774 292.547 332.788 300.334 331.411C304.611 330.655 308.705 331.851 312.902 331.645C315.386 331.523 316.673 330.8 316.684 328.193C316.696 325.327 314.994 324.821 312.69 325.203C307.293 326.099 301.831 324.198 296.405 325.797C294.035 326.495 293.581 324.466 292.966 322.529C289.786 312.52 291.194 302.637 293.423 292.744C295.167 285.003 297.315 277.387 301.017 270.276C301.44 269.464 301.892 268.65 302.451 267.924C307.12 261.861 307.31 261.735 302.613 255.564C299.164 251.032 296.882 245.795 292.992 241.516C290.844 239.153 290.783 236.635 294.124 234.253C297.537 231.819 300.649 229.074 305.155 227.866C306.839 228.79 307.084 230.244 306.711 231.551C305.398 236.157 308.279 235.541 310.99 234.86C322.487 231.969 334.068 229.424 345.61 226.717C353.812 224.794 362.143 223.479 370.361 221.621C375.973 220.352 381.643 221.677 387.136 222.446C393.74 223.37 400.521 222.109 406.565 224.211C401.744 221.499 396.386 219 391.095 216.37C389.834 215.744 388.604 215.047 388.106 213.262C392.822 188.673 397.253 164.36 400.102 139.822C401.083 131.372 397.812 123.308 395.552 115.24C394.985 113.214 393.204 112.963 391.397 113.058C376.74 113.824 362.087 114.634 347.43 115.383C340.567 115.734 333.643 115.545 326.843 116.359C311.659 118.176 297.545 123.671 283.449 129.171C275.902 132.116 268.279 134.915 260.556 137.38C255.773 138.906 250.902 137.341 246.272 136.103C236.49 133.486 226.733 130.733 217.128 127.567C213.952 126.519 210.067 128.309 207.428 124.746C209.916 119.738 214.602 120.566 218.475 121.065C230.895 122.666 243.055 125.662 255.198 128.652C255.956 128.839 256.688 129.135 257.451 129.287C258.817 129.559 260.464 130.297 261.513 129.31C262.732 128.164 260.624 126.947 260.961 125.334C261.83 125.421 263.144 125.168 263.563 125.653C267.445 130.147 270.941 127.611 274.984 125.678C293.729 116.716 313.241 109.734 333.596 105.109C353.105 100.676 372.309 95.0182 391.994 91.295C399.171 89.9376 405.871 92.6419 409.565 98.7603C414.891 107.58 419.997 116.526 425.298 125.361C426.471 127.316 426.759 129.305 426.764 131.485C426.799 144.18 427.126 156.879 426.879 169.568C426.745 176.483 427.743 182.944 431.249 188.978C431.48 189.374 431.574 189.854 431.838 190.224C444.462 207.889 446.054 228.503 448.328 248.935C449.493 259.408 451.075 269.814 450.983 280.429C450.853 295.648 448.111 310.493 445.43 325.372C445.017 327.667 444.844 327.637 440.18 328.293C440.597 331.489 441.922 334.631 440.862 337.993C440.086 340.454 440.347 343.361 436.513 343.493C435.828 343.517 434.578 344.23 434.584 344.611C434.677 350.88 427.848 353.617 426.847 359.411C426.154 363.425 422.597 360.846 419.977 361.336C419.335 361.511 419.044 361.612 418.808 361.859C420.898 365.528 420.953 368.337 416.303 369.622C414.838 370.026 414.089 371.011 413.6 372.428C412.232 376.393 409.548 377.279 405.615 375.689C402.776 374.542 399.763 373.803 396.576 372.676C394.469 365.219 394.249 357.802 394.796 350.443C395.189 345.159 395.885 339.858 396.856 334.606C399.645 319.532 404.719 305.155 411.644 291.513C414.92 285.061 414.465 280.028 409.686 274.975C409.474 274.751 409.29 274.501 409.122 274.244C404.799 267.629 400.052 262.511 390.584 265.32C386.554 266.515 381.889 265.611 377.513 265.506C375.058 265.446 372.79 265.044 371.894 261.942C372.17 257.936 375.774 256.991 377.997 254.456C378.41 254.043 378.585 253.89 379.349 253.392C381.962 251.539 385.866 251.04 385.7 248.525C385.537 246.062 381.584 245.914 379.439 244.524C375.449 241.938 369.998 242.174 366.574 237.92C366.28 236.886 366.355 236.191 366.818 235.206C367.561 234.396 368.22 234.131 369.289 234.003C371.358 234.059 372.668 235.975 374.731 234.958C370.524 233.087 365.957 232.729 361.38 232.881C351.994 233.195 342.973 234.932 334.774 240.383C333.936 241.383 333.2 242.1 333.056 243.465C332.989 243.973 332.955 244.178 332.834 244.687C332.578 245.383 332.378 245.759 331.969 246.388C331.32 247.264 330.755 247.784 330.201 248.316C326.128 252.23 326.103 252.596 329.693 256.795C330.59 257.844 331.511 258.872 332.079 260.498C332.401 262.745 334.173 263.017 335.526 263.613C340.818 265.946 349.495 262.828 354.592 265.506C356.285 266.395 354.24 273.628 353.824 275.819C353.421 277.932 351.436 278.452 349.595 278.95C349.293 279.031 348.979 279.135 348.673 279.115C338.969 278.475 335.48 284.445 332.094 292.173C328.78 299.738 328.76 306.069 332.557 313.302C335.613 319.125 337.962 325.28 342.168 330.492C345.035 334.045 345.896 337.792 343.269 341.918C341.3 345.01 342.807 346.81 345.666 348.539C352.802 352.855 361.187 354.192 368.506 357.998C370.741 359.16 373.73 359.79 373.282 363.512C365.423 363.145 358.21 360.622 350.856 358.793C342.12 356.622 333.525 353.907 324.895 351.343C322.485 350.627 320.351 348.318 317.248 350.361C315.208 350.366 313.997 351.863 311.924 351.911C311.347 351.992 311.116 352.011 310.539 352.032C309.742 352.006 309.293 351.957 308.527 351.829C300.864 350.949 299.855 357.025 297.059 361.619C296.554 362.176 296.188 362.401 295.459 362.614C294.926 362.657 294.712 362.644 294.192 362.538C293.516 362.246 293.18 362.005 292.679 361.491C292.327 361.136 292.181 361 291.812 360.664C291.312 360.179 291.043 359.885 290.579 359.36C289.425 357.462 287.284 357.144 286.02 355.379C285.324 353.333 285.446 351.564 286.009 349.506C285.428 346.388 282.26 345.913 280.666 343.552C279.974 340.387 276.116 339.167 276.73 335.519Z" fill="#DE765D"/>
<path d="M630.205 598.759C638.022 590.859 647.598 584.85 657.226 578.938C661.527 576.297 666.016 573.961 669.274 569.628C671.188 568.79 672.778 568.83 674.631 569.912C682.782 574.668 690.58 579.744 698.115 585.524C714.386 598.006 722.112 615.075 728.587 633.255C733.094 645.909 738.562 658.252 742.688 671.014C747.051 684.504 751.319 698.039 754.86 711.791C761.259 736.639 768.164 761.362 774.907 786.125C775.333 787.691 775.626 789.038 774.367 790.377C760.722 804.896 747.289 819.634 730.482 830.887C729.852 831.309 729.051 831.487 728.004 831.841C726.527 822.689 724.257 813.849 720.084 805.386C716.854 798.836 714.598 791.828 711.92 785.02C711.81 784.741 711.655 784.32 711.782 784.134C714.456 780.214 711.287 777.588 709.527 774.741C705.57 768.337 707.335 760.693 704.485 753.961C700.514 744.581 697.153 734.945 693.801 725.329C690.004 714.437 685.585 703.651 686.957 691.692C687.186 689.7 686.493 687.324 685.482 685.525C678.865 673.752 675.237 660.764 669.496 648.649C666.84 643.043 663.933 637.545 660.962 632.091C659.84 630.031 658.801 628.085 658.893 625.66C658.925 624.814 658.605 623.711 658.024 623.125C652.643 617.698 650.113 610.506 645.764 604.44C642.993 600.574 640.269 597.36 634.669 599.416C633.538 599.831 631.947 599.051 630.205 598.759Z" fill="#1F2934"/>
<path d="M261.718 521.829C261.906 520.967 261.862 520.26 262.13 520.119C263.787 519.248 263.272 520.993 263.387 521.407C265.729 529.792 269.007 537.855 272.148 545.965C272.801 547.652 279.614 548.344 280.288 549.909C280.288 544.686 278.366 541.287 278.407 535.679C278.834 533.209 275.982 528.992 278.877 527.875C281.398 526.903 280.737 528.643 282.446 530.665C283.112 531.453 283.973 531.589 285.287 531.404C287.93 531.721 289.805 532.987 291.253 534.529C296.467 540.08 302.931 544.188 308.589 549.203C313.063 553.169 317.909 554.55 324.014 552.788C324.572 552.644 324.798 552.592 325.368 552.479C326.407 552.315 327.111 552.403 328.157 552.282C331.276 551.334 334.228 552.251 337.358 551.407C338.179 551.393 338.646 551.384 339.458 551.344C341.87 551.151 343.812 550.522 346.054 549.692C346.606 549.543 346.828 549.488 347.393 549.43C359.061 549.474 367.592 543.41 374.313 535.781C383.832 524.974 394.53 515.376 404.555 505.105C406.497 503.114 408.338 501.093 409.917 498.778C426.652 474.24 430.577 453.295 444.887 427.35C445.268 426.657 448.959 423.087 450.06 422.908C451.95 433.089 453.769 443.143 454.993 453.266C456.027 461.806 467.644 467.209 475.681 471.804C476.836 474.095 475.54 475.618 474.533 477.099C462.289 495.112 449.77 512.903 434.827 528.977C426.1 538.364 417.134 547.457 406.884 555.698C406.552 555.754 406.343 555.86 406.274 555.953C406.724 556.994 405.784 556.808 405.114 557.169C385.681 570.23 364.722 579.199 341.827 583.349C321.777 586.984 301.961 585.635 282.673 578.669C276.034 576.271 270.518 572.46 265.771 567.007C263.716 563.623 263.592 560.21 263.407 556.674C262.809 545.198 261.284 533.77 261.718 521.829Z" fill="#E8AD7C"/>
<path d="M460.258 232.236C460.636 229.367 459.448 226.705 458.126 224.094C450.38 208.786 443.905 192.848 434.366 178.428C433.586 177.247 433.237 175.926 433.247 174.509C433.276 170.389 433.287 166.285 432.443 162.198C432.158 160.818 431.612 158.749 433.122 157.958C434.844 157.056 435.803 159.066 436.761 160.092C442.443 166.178 449.708 170.7 454.692 177.484C455.468 178.54 456.854 179.169 458.275 180.055C458.757 180.289 458.927 180.459 459.102 180.625C459.279 180.791 459.228 180.729 458.822 180.233C456.232 173.183 450.769 168.387 446.207 163.037C442.893 159.15 439.875 155.097 436.857 151.011C434.643 148.015 435.406 144.607 435.179 141.068C446.277 150.578 455.176 161.854 463.605 174.719C463.842 171.15 462.476 168.925 461.403 166.761C455.802 155.466 449.378 144.699 440.635 135.337C434.954 129.255 432.79 121.14 428.661 114.141C426.118 109.831 423.852 105.365 422.008 100.429C441.018 112.421 459.705 124.702 472.869 143.31C463.144 116.815 440.106 103.121 416.904 88.9875C427.743 85.497 438.353 85.1374 449.083 85.0178C442.773 82.3253 436.306 80.5252 429.557 80.0668C420.479 79.4502 411.384 79.9895 402.405 81.2033C385.704 83.4611 369.018 85.9375 352.87 90.9337C344.675 93.4695 336.493 96.0475 328.308 98.6155C326.588 99.1551 324.955 100.14 322.898 99.8081C323.25 97.7198 324.908 97.2685 326.152 96.5064C347.167 83.6253 369.893 74.0914 392.602 64.5964C400.891 61.131 409.529 58.4147 417.999 54.5917C415.741 50.1871 417.021 47.4352 421.618 47.1933C425.167 47.0065 428.78 48.6877 432.146 45.544C433.599 44.1875 435.766 46.5305 437.781 47.6206C443.012 53.7486 446.202 60.7711 450.567 67.0964C462.289 84.0798 473.345 101.499 484.804 118.657C487.492 122.682 488.523 127.039 488.708 131.652C489.002 138.97 489.331 146.323 489.391 153.605C489.497 166.534 488.227 179.49 487.138 192.403C486.664 198.029 487.586 203.715 486.102 209.303C485.62 211.119 485.024 212.461 483.116 212.947C481.18 213.441 479.741 214.692 478.641 216.151C472.9 223.769 467.06 231.316 463.028 240.029C461.532 243.262 461.039 246.57 461.6 249.865C462.921 257.633 462.319 265.427 462.376 273.207C462.398 276.259 463.323 279.13 464.215 283.251C461.015 280.28 460.484 277.406 459.647 274.785C456.459 264.796 456.318 254.333 454.946 244.067C453.959 236.679 452.248 229.444 450.441 221.719C455.319 224.225 456.166 229.448 460.258 232.236Z" fill="#372B29"/>
<path d="M380.351 375.742C386.899 380.467 393.181 385.384 399.949 390.681C400.323 385.929 401.986 381.543 397.576 377.754C400.966 378.385 404.387 379.514 407.899 380.208C414.165 381.448 417.551 379.944 420.849 374.644C421.856 373.025 422.801 371.341 424.849 371.125C427.506 370.843 429.341 370.409 427.383 367.296C426.844 366.44 427.456 365.651 428.356 365.783C432.822 366.437 431.85 363.775 431.496 361.247C431.358 360.261 431.472 358.631 432.09 358.25C437.469 354.934 438.382 347.945 443.88 344.794C445.122 344.082 446.093 343.215 446.389 341.682C449.196 327.157 452.517 312.725 454.072 297.984C454.383 295.04 455.497 292.176 456.554 288.048C459.858 293.896 462.759 298.635 463.344 304.338C465.438 324.748 463.71 345.164 463.204 365.568C463.043 372.077 460.189 378.352 460.402 385.008C460.444 386.305 459.425 387.224 458.518 388.077C450.848 395.286 443.762 403.01 436.907 410.959C433.201 415.257 432.197 415.022 430.177 409.918C428.856 406.58 427.816 403.136 426.346 399.799C425.496 405.702 424.077 411.546 424.914 417.403C425.853 423.979 422.588 428.542 418.33 432.762C409.45 441.565 400.649 450.456 391.473 458.959C384.456 465.462 376.915 471.428 369.599 477.623C368.921 478.197 368.253 479.189 367.226 478.574C366.282 478.008 366.678 476.961 366.811 476.066C367.501 471.393 367.799 466.652 369.6 462.185C370.108 460.923 370.595 459.57 368.686 457.597C365.998 462.974 363.283 467.976 360.972 473.149C358.656 478.335 355.688 483.152 352.863 488.055C351.936 489.665 350.188 490.045 348.454 490.325C342.442 491.294 336.437 492.247 330.308 492.218C318.404 492.162 306.498 492.1 294.596 492.241C290.996 492.283 289.215 490.993 288.324 487.563C287.096 482.839 285.351 478.244 283.777 473.248C284.927 471.61 286.499 471.315 288.031 471.892C294.948 474.5 301.632 471.079 308.449 471.24C310.157 471.281 309.725 469.97 309.56 468.889C308.986 465.122 307.837 461.414 308.171 457.55C308.316 455.881 308.437 453.866 310.563 453.598C312.44 453.361 312.994 455.141 313.619 456.563C315.653 461.189 317.934 465.706 320.13 470.258C322.124 474.39 325.289 475.586 329.309 473.341C334.568 470.406 340.421 468.411 344.748 463.921C349.592 458.896 356.294 456.261 361.62 451.728C366.507 447.568 370.799 443.243 373.354 437.368C375.003 433.574 376.7 429.777 379.158 426.391C381.415 423.281 382.443 419.842 382.476 415.721C383.457 409.503 380.608 404.169 379.956 398.512C379.768 396.876 379.345 395.257 379.334 393.245C382.125 388.817 382.564 384.632 380.153 380.223C379.418 378.88 379.113 377.377 380.351 375.742Z" fill="#392C2A"/>
<path d="M372.708 260.437C373.013 263.32 374.774 263.735 376.82 263.659C383.679 263.403 390.638 264.254 397.355 262.428C400.085 261.687 401.767 262.459 403.494 264.336C408.098 269.338 412.324 274.6 415.94 280.335C417.247 282.408 417.062 284.263 416.046 286.368C409.6 299.729 408.318 316.378 404.877 330.689C402.273 341.518 401.687 343.349 397.187 361.205C397.824 364.805 396.924 368.177 396.4 372.055C394.668 372.037 393.033 371.358 391.353 371.227C388.855 371.032 390.926 372.421 390.892 373.408C388.035 376.468 386.477 372.755 383.89 372.183C379.975 369.67 377.705 365.783 373.347 363.915C370.163 359.244 364.928 358.052 360.439 356.767C354.168 354.971 348.622 352.017 342.868 349.301C339.405 347.666 338.606 345.209 340.832 342.39C342.868 336.464 344.246 337.841 339.9 330.689C333.185 323.131 328.365 313.75 323.554 305.25C322.683 303.711 319.701 300.699 320.262 299.283C320.262 293.316 322.613 289.643 324.965 275.414C327.254 270.233 325.905 270.364 329.197 268.528C330.138 267.61 339.543 269.446 348.479 269.446C348.479 269.446 352.711 267.61 352.241 266.233C344.717 265.774 340.744 266.539 336.251 264.397C334.699 263.657 330.633 263.684 330.797 261.19C331.72 259.36 333.276 259.399 335.201 259.193C341.521 258.937 347.301 258.478 353.226 260.011C357.454 261.105 362.174 260.916 366.637 259.747C368.57 259.24 370.589 258.579 372.708 260.437Z" fill="#E9AE7C"/>
<path d="M452.114 431.216C448.177 441.839 447.933 440.513 442.889 450.115C433.582 467.83 421.532 483.901 410.93 500.841C408.77 504.292 405.551 506.776 402.755 509.649C393.928 518.719 384.574 527.252 376.118 536.731C369.094 544.605 360.54 551.552 348.054 551.005C347.323 547.159 344.982 545.467 341.253 545.184C339.851 545.078 338.485 544.705 337.088 544.524C335.351 544.3 333.439 543.99 333.117 541.967C332.8 539.966 334.555 539.096 336.059 538.264C336.879 537.811 337.775 537.551 338.742 537.795C331.983 536.692 329.427 532.937 331.732 526.996C332.505 525.004 331.309 523.426 331.46 521.424C331.455 521.205 331.299 520.863 331.091 520.802C327.21 520.384 323.339 520.713 320.186 517.613C319.322 515.392 320.307 514.764 322.154 514.27C329.697 512.25 336.925 509.267 344.604 506.879C344.764 506.605 344.755 506.728 344.693 506.717C347.241 505.483 350.198 505.473 353.028 504.208C353.187 503.949 353.222 504.033 353.178 504.046C353.307 503.962 353.48 503.865 353.918 503.632C354.548 503.346 354.913 503.196 355.572 502.998C356.101 502.969 356.335 502.987 356.671 503.336C355.077 507.543 353.194 511.357 352.245 516.04C357.459 514.252 360.644 510.657 364.065 507.49C386.59 486.638 405.916 463.012 425.432 439.571C434.499 428.682 436.544 427.425 445.357 416.333C446.673 414.677 448.045 413.064 450.142 410.52C450.893 417.988 451.537 424.399 452.114 431.216Z" fill="#DC7259"/>
<path d="M461.684 541.089C452.046 548.652 442.836 556.234 433.206 563.267C419.68 573.145 406.153 583.797 390.154 588.953C373.211 594.412 357.546 603.518 339.376 605.616C313.089 608.65 287.74 606.756 264.694 592.875C256.607 588.005 249.516 581.604 243.892 573.909C239.952 568.518 241.538 562.435 241.606 556.565C241.731 545.865 244.467 535.445 245.26 524.795C245.835 517.079 250.047 510.365 253.235 503.439C254.098 501.563 256.445 500.338 258.368 501.283C260.195 502.182 258.925 504.297 258.525 505.864C255.468 517.846 252.301 529.804 250.262 542.007C249.304 547.743 249.593 553.574 249.227 559.343C248.756 566.765 255.118 570.923 260.22 575.002C275.651 587.339 293.513 592.673 313.51 593.389C337.376 594.244 359.262 587.895 380.643 578.832C401.399 570.034 420.932 559.32 437.466 543.856C443.654 538.069 450.849 533.316 457.158 527.639C462.894 522.478 468.27 516.89 473.411 511.153C480.211 503.565 487.048 496.028 494.394 488.934C496.164 487.225 497.635 485.224 499.263 483.372C501.152 481.222 503.042 480.62 505.732 482.521C511.11 486.322 510.974 486.043 507.167 491.478C497.325 505.531 485.029 517.544 473.479 530.153C469.996 533.956 465.754 537.261 461.684 541.089Z" fill="#1F2934"/>
<path d="M334.728 43.0732C324.623 52.4077 316.004 62.6515 307.328 73.2504C303.216 76.5861 298.597 77.5495 293.698 77.5513C292.113 77.5518 290.621 77.611 289.287 78.625C286.344 80.8602 283.848 80.3851 281.724 76.9757C281.11 70.7331 284.418 65.8116 286.115 60.4995C287.829 55.1368 290.314 50.008 292.135 44.6661C293.109 41.8113 294.772 40.6694 297.776 41.4096C294.836 40.4268 293.239 41.4669 292.204 44.3678C288.429 54.9482 283.976 65.2944 280.653 76.3859C279.035 81.5215 277.59 82.091 270.683 80.2958C270.544 76.8546 270.684 73.646 271.002 70.0989C272.679 70.8405 272.949 69.5807 273.316 68.6515C274.278 66.2135 274.399 63.5913 274.963 61.0646C276.522 54.0909 277.597 47.0226 280.221 40.2818C280.821 38.7389 281.367 36.7666 280.46 34.6427C281.351 29.3696 283.897 24.9698 286.045 20.4135C286.694 19.0378 287.857 18.3877 289.296 18.0562C302.978 14.9035 316.414 10.8235 330.215 8.08357C337.689 6.59965 344.526 8.99232 351.435 10.4435C367.436 13.8042 383.616 16.6326 399.184 22.8261C399.762 24.7594 398.358 25.0517 397.243 25.461C388.386 28.7118 380.994 34.4428 372.989 39.1256C360.689 46.3211 348.776 54.1491 336.399 61.1974C332.166 63.6081 327.063 65.2981 321.505 64.6188C324.282 58.5983 329.549 54.5571 333.379 49.4071C334.292 48.1794 335.218 46.9613 336.302 45.4739C338.774 40.554 343.303 38.1101 347.412 35.5403C355.99 30.1756 364.611 24.7369 372.299 22.74C361.839 26.3508 350.329 32.9218 339.493 40.6919C338.102 41.6892 336.902 42.9077 334.728 43.0732Z" fill="#60372F"/>
<path d="M384.144 415.701C384.684 420.422 383.274 424.33 380.615 427.942C377.68 431.929 376.329 436.735 373.965 440.971C371.576 445.249 368.667 449.475 364.18 452.19C363.384 452.672 362.416 453.009 361.824 453.668C356.248 459.858 348.148 462.793 342.109 468.606C338.087 472.477 332.1 474.685 326.471 476.525C322.67 477.768 320.371 474.925 318.725 472.423C316.082 468.406 315.739 463.222 312.07 459.58C310.898 458.417 312.751 456.017 310.271 454.157C309.515 461.417 311.169 467.74 313.589 475.202C307.515 471.555 302.182 473.996 296.789 474.751C292.473 475.356 288.513 473.99 284.104 472.916C282.981 470.105 282.236 467.308 281.49 464.512C281.384 471.165 279.999 477.749 279.982 484.416C279.972 488.249 278.684 489.116 275.254 487.234C273.489 486.265 271.594 485.502 269.708 484.768C267.887 484.06 267.147 482.825 266.909 480.949C265.361 468.732 263.721 456.526 262.071 443.941C259.261 438.624 259.392 435.825 262.912 432.059C265.988 431.603 267.148 433.542 268.204 435.391C269.874 438.316 271.544 441.242 273.214 444.167C275.602 448.351 277.548 448.495 280.133 444.343C283.526 438.895 286.525 433.209 289.308 427.448C291.36 423.2 293.431 418.903 294.63 414.309C295.302 411.733 297.08 410.845 299.532 411.184C302.326 411.569 305.101 411.617 307.913 411.503C311.503 411.359 313.887 413.188 314.899 416.461C315.752 419.218 316.993 421.884 317.218 425.128C317.11 427.761 317.189 429.972 320.574 430.52C322.998 431.537 324.2 433.35 325.416 435.128C328.204 439.204 331.394 442.977 334.743 446.607C337.594 449.695 340.122 449.403 342.749 446.082C350.218 436.64 358.178 427.679 367.891 420.28C371.395 417.61 374.888 414.782 375.579 409.782C376.018 406.608 378.644 406.323 381.021 408.765C382.86 410.653 382.725 413.323 384.144 415.701Z" fill="#56352E"/>
<path d="M321.283 64.3856C334.353 61.2798 345.296 53.9445 356.293 46.9373C364.259 41.862 372.722 37.5888 380.481 32.244C384.698 29.3395 389.242 27.1085 393.71 24.6822C395.422 23.7525 397.13 23.4329 399.216 23.2212C406.329 23.0361 412.213 27.6839 418.891 27.5999C427.518 27.4914 430.863 32.519 433.558 39.1066C434.707 41.9151 436.424 44.5024 437.961 47.5092C436.979 47.948 435.41 48.5627 434.944 48.1055C432.35 45.5649 431.638 47.0536 430.732 49.4697C430.254 50.7473 429.013 51.786 427.471 50.281C425.451 48.3089 422.746 49.0961 420.46 49.0166C417.416 48.9106 418.469 51.7664 418.196 53.9404C417.191 54.3282 416.191 54.3271 414.816 54.324C412.258 52.7083 410.131 51.821 408.083 55.0027C389.773 60.1109 372.109 66.2203 354.942 73.5891C345.952 77.4477 337.376 82.1768 329.125 87.4501C318.805 94.0446 308.347 100.434 297.916 106.86C295.569 108.306 293.145 109.7 289.628 109.776C299.726 94.8052 308.601 79.5561 319.839 65.4814C320.403 65.1544 320.701 64.9679 321.152 64.5518C321.327 64.3559 321.304 64.3984 321.283 64.3856Z" fill="#3B2C29"/>
<path d="M205.33 129.583C204.632 147.553 203.406 165.778 202.911 184.021C202.569 196.62 201.882 209.316 204.786 221.788C205.37 224.298 205.945 226.955 209.413 227.886C210.189 230.924 207.901 232.345 205.971 233.774C201.311 237.226 197.48 241.31 194.814 246.773C195.714 252.075 196.635 257.067 199.742 261.273C203.339 266.142 204.95 271.687 205.581 277.508C209.364 312.384 218.683 345.798 233.053 377.915C234.279 380.656 236.101 383.32 235.544 386.917C233.183 389.413 231.319 387.855 229.692 386.507C226.581 383.932 223.909 380.975 221.743 377.531C216.996 369.981 212.126 362.513 209.589 353.515C206.539 344.902 205.999 336.164 204.412 327.628C201.985 314.571 198.536 301.703 196.792 288.524C196.313 284.902 195.657 281.185 196.009 277.598C196.715 270.413 195.482 263.68 192.873 257.018C190.195 250.181 191.802 243.142 192.213 236.159C193.057 221.81 193.087 207.414 192.359 193.097C191.416 174.54 195.337 157.026 201.6 139.78C202.8 136.478 203.944 133.157 205.33 129.583Z" fill="#F5D6B3"/>
<path d="M499.963 228.434C502.402 230.755 503.225 233.241 503.015 236.166C501.123 262.594 497.939 288.719 485.267 312.783C482.69 317.676 479.069 321.05 473.619 322.635C471.801 323.163 470.706 323.517 470.641 321.032C470.177 303.194 467.911 285.437 468.228 267.554C468.338 261.317 467.846 255.056 467.342 248.827C467.08 245.589 467.775 242.919 469.799 240.322C473.774 235.222 477.624 230.033 482.338 225.17C488.948 222.611 494.438 224.629 499.963 228.434Z" fill="#D97058"/>
<path d="M227.213 40.7766C229.024 37.3275 232.407 36.5866 235.355 35.3546C249.447 29.4652 264.28 25.6615 278.774 20.9012C279.788 20.5681 281.016 19.8477 281.853 20.7367C283.055 22.0142 281.548 23.0194 280.883 23.8343C272.821 33.7186 268.824 45.4428 265.031 57.2277C262.539 64.9665 262.91 73.1946 261.183 81.463C257.021 83.3819 254.541 85.8204 254.54 90.6153C254.54 92.9478 252.844 95.2297 249.262 93.9065C245.107 87.847 241.444 81.8409 236.781 76.5079C235.964 75.5732 235.261 74.5818 233.611 74.1419C231.702 73.7223 230.827 72.7315 230.421 71.2954C227.627 61.4295 224.566 51.5897 227.213 40.7766Z" fill="#60372F"/>
<path d="M170.791 82.7927C171.082 80.5705 172.641 79.9578 174.538 79.3306C174.849 79.287 175.276 79.3068 175.43 79.1628C175.585 79.0188 175.553 79.1041 175.509 79.0897C183.403 75.7361 190.755 71.132 199.167 68.7934C202.462 67.8772 205.544 67.6955 208.892 69.6542C212.636 73.9728 216.056 78.0804 219.639 82.4529C220.98 86.3813 224.091 89.0784 225.079 93.1481C224.114 96.1236 221.7 96.345 219.389 96.7908C214.323 97.7682 209.341 96.7427 205.077 96.6305C208.408 97.9286 211.884 100.535 215.308 103.171C218.353 105.515 218.334 107.053 215.313 109.639C204.636 107.52 194.379 104.842 183.609 105.716C180.201 105.993 176.962 106.479 172.88 108.247C184.844 108.874 195.355 110.98 205.474 115.196C193.711 115.62 184.135 120.311 175.903 128.569C174.439 129.384 173.469 130.497 171.606 130.541C164.758 128.325 162.857 125.252 162.214 118.795C160.904 105.621 167.648 100.631 177.268 96.4857C180.399 95.1365 183.491 93.6707 187.71 93.0717C182.943 90.244 179.015 87.5895 174.63 85.6852C173.191 85.0601 171.726 84.5261 170.791 82.7927Z" fill="#5E362F"/>
<path d="M332.291 519.676C332.616 519.889 332.562 520.072 332.628 520.19C334.597 523.672 336.157 527.101 332.064 530.302C331.742 530.554 331.955 531.456 331.919 532.056C335.609 531.491 335.357 537.988 339.63 536.211C341.901 535.266 341.862 536.976 342.358 538.151C342.675 538.903 343.834 539.734 342.635 540.464C341.498 541.157 340.718 540.124 339.818 539.486C337.026 537.505 336.548 541.681 334.24 540.968C334.698 543.112 336.058 542.725 336.966 542.646C341.187 542.275 344.82 544.82 348.966 544.824C350.119 544.825 350.502 545.835 350.006 546.837C349.397 548.069 348.626 549.225 347.782 550.705C347.638 550.996 347.204 551.025 346.987 551.023C344.733 550.373 342.556 551.982 340.238 550.641C337.21 551.223 334.733 551.479 332.006 549.964C327.761 547.607 329.97 552.657 328.166 553.727C327.535 554.209 327.052 554.405 326.304 554.619C325.863 554.514 325.688 554.392 325.275 554.483C318.187 556.638 312.583 555.137 306.944 550.497C299.932 544.726 293.159 538.705 285.961 532.695C284.531 532.174 283.298 531.98 282.523 530.862C277.382 523.438 273.694 515.447 272.604 506.156C274.606 503.632 276.716 503.778 278.764 505.438C280.145 506.557 281.62 507.133 283.723 507.113C284.07 507.094 284.454 507.246 284.552 507.425C285.732 509.234 287.182 510.434 289.34 511.262C289.645 511.365 290.013 511.44 290.149 511.567C292.77 516.174 296.816 518.006 302.154 518.155C302.912 518.123 303.355 518.117 304.129 518.088C309.27 521.014 313.398 518.184 317.671 516.582C318.41 516.305 319.152 516.258 320.141 516.774C324.246 517.86 328.107 518.738 332.291 519.676Z" fill="#DF785D"/>
<path d="M380.452 375.292C380.523 377.624 381.51 379.251 382.69 380.897C384.88 383.953 384.082 389.197 380.86 392.064C376.816 392.852 374.544 391.018 373.44 387.83C372.706 385.708 371.63 384.237 369.292 384.164C359.271 383.851 349.713 380.68 339.832 379.637C331.763 378.786 323.903 377.193 316.075 375.186C311.979 374.136 307.782 374.718 303.363 375.922C301.299 375.739 299.861 375.115 300.097 373.163C300.344 371.119 301.817 369.724 303.834 369.755C308.964 369.836 310.304 367.079 310.532 362.67C310.629 360.785 310.603 359.604 308.864 358.539C306.736 357.235 305.873 355.156 306.163 352.362C306.574 351.404 307.075 350.926 307.864 350.237C308.563 349.948 309.001 349.891 309.763 349.908C310.222 350.081 310.356 350.178 310.704 350.149C312.685 350.047 314.452 350.073 316.569 350.218C316.837 354.554 320.601 354.439 323.108 355.051C337.633 358.593 351.719 363.738 366.435 366.52C372.321 367.632 376.753 370.518 380.452 375.292Z" fill="#4A322D"/>
<path d="M170.378 82.541C179.06 84.1926 185.229 89.9971 192.732 93.8522C187.091 94.5016 182.026 96.6447 176.864 98.5727C171.478 100.584 167.29 104.195 164.629 108.766C161.051 114.91 164.871 125.302 171.548 129.427C174.755 132.794 172.925 136.446 172.546 139.883C172.291 142.2 171.457 144.033 175.188 143.565C177.104 143.324 178.136 145.036 178.897 146.558C180.624 150.011 181.82 153.578 180.982 157.801C179.566 165.181 178.034 172.262 176.305 180.258C168.731 161.706 163.405 143.546 158.107 125.392C156.71 120.604 158.428 115.638 159.557 110.972C161.635 102.384 163.956 93.8126 167.611 85.6774C168.156 84.4635 168.281 82.9145 170.378 82.541Z" fill="#EB4A4A"/>
<path d="M282.481 76.0784C284.466 78.1394 286.008 80.7384 288.094 76.613C288.715 75.3864 290.183 75.2447 291.414 75.4339C296.608 76.2322 301.405 74.1691 306.779 73.5435C297.153 87.8892 287.409 102.454 275.898 115.773C274.403 117.502 272.685 120.211 270.551 119.605C267.653 118.781 268.645 115.441 268.715 113.14C269.044 102.318 269.554 91.5006 270.201 80.3723C271.692 78.9106 272.715 77.9068 274.793 79.2821C277.079 80.7948 278.574 79.4411 279.056 76.6209C280.012 75.4529 281.029 75.3271 282.481 76.0784Z" fill="#3A2C2A"/>
<path d="M209.476 353.591C214.272 361.163 219.122 369.114 223.849 377.133C226.388 381.44 229.802 384.84 234.426 387.454C235.196 387.157 235.69 387.036 236.585 387.277C238.804 390.471 236.012 393.847 237.871 397.2C240.051 401.551 241.172 405.831 241.82 410.597C242.111 411.815 242.33 412.696 242.624 413.907C242.815 414.663 242.884 415.099 242.937 415.86C242.617 417.849 242.893 420.016 239.637 419.448C239.25 419.25 239.496 419.499 239.628 419.673C243.605 424.095 244.87 429.485 246.701 434.992C248.724 439.091 250.003 443.114 251.451 447.064C252.381 449.599 253.293 452.238 251.481 455.19C250.988 455.58 250.753 455.687 250.16 455.646C243.803 443.942 237.801 432.385 231.807 420.825C230.161 417.65 229.376 414.303 229.197 410.72C228.84 403.563 225.844 396.864 224.498 389.712C224.498 394.355 224.498 398.998 224.498 403.642C224.007 403.757 223.517 403.872 223.026 403.987C220.199 397.771 216.56 391.869 215.197 385.059C213.132 374.735 211.369 364.354 209.476 353.591Z" fill="#C03F3F"/>
<path d="M477.439 473.8C488.48 480.377 488.733 480.579 481.478 489.258C463.547 510.709 444.304 530.898 420.618 546.73C418.794 544.757 420.416 543.775 421.441 542.776C434.135 530.395 445.681 517.033 456.361 502.996C462.94 494.35 469.087 485.372 475.017 476.273C475.614 475.359 476.175 474.482 477.439 473.8Z" fill="#E3AC7D"/>
<path d="M238.516 417.545C239.56 418.003 240.275 418.458 240.989 418.912C241.068 418.21 241.146 417.509 241.248 416.527C241.189 416.077 241.107 415.907 240.973 415.458C240.787 414.178 240.652 413.177 240.534 411.797C242.02 403.825 247.315 398.904 253.091 394.322C254.095 393.526 255.202 393.066 256.796 393.837C258.158 395.639 257.436 397.239 257.301 398.887C256.632 407.031 256.133 415.187 259.765 423.526C260.433 424.164 260.599 424.321 260.963 424.753C261.684 426.172 261.761 427.563 263.296 428.512C264.307 429.644 264.786 430.633 264.298 432.125C261.442 433.922 262.182 436.451 262.116 438.744C262.075 440.188 263.282 441.536 262.244 443.302C259.258 445.186 260.59 447.949 260.034 450.588C256.009 452.321 254.351 449.449 253.76 446.83C252.635 441.854 249.279 438.779 245.448 435.48C242.923 429.778 240.624 424.308 238.257 418.512C238.187 417.971 238.186 417.756 238.516 417.545Z" fill="#412E2B"/>
<path d="M215.114 109.919C216.783 107.699 216.917 106.342 214.296 104.605C209.363 101.335 204.408 98.128 199.214 95.1938C203.926 95.1938 208.648 95.0064 213.347 95.2529C217.131 95.4514 220.705 95.1345 224.294 93.1285C225.132 92.2281 225.875 92.1389 227.03 92.609C232.261 99.1113 237.137 105.422 242.066 111.693C243.296 113.259 244.71 114.687 246.018 116.196C246.69 116.972 247.969 117.745 247.061 118.845C246.626 119.373 245.218 119.615 244.482 119.356C234.844 115.969 224.341 115.203 215.114 109.919Z" fill="#3B2C29"/>
<path d="M181.282 157.832C178.453 155.375 179.011 151.548 177.65 148.337C176.251 145.033 175.054 143.929 172.032 146.479C171.468 146.955 170.74 147.245 169.666 147.863C168.752 141.567 172.68 136.207 171.852 129.943C172.79 128.716 173.618 127.559 175.393 128.63C175.603 129.427 175.555 130.106 175.479 131.124C177.265 133.189 175.929 135.84 177.183 137.875C179.874 135.945 176.973 133.742 178.088 131.609C183.08 127.151 188.259 123.721 194.656 122.056C198.403 121.081 198.502 122.537 198.121 125.321C197.907 126.882 197.137 128.19 196.696 129.626C193.533 139.943 187.297 148.644 181.282 157.832Z" fill="#49302B"/>
<path d="M477.635 473.499C469.991 487.298 460.774 499.894 450.825 512.03C441.172 523.804 430.812 534.95 420.272 546.229C420.318 546.546 420.226 546.511 420.236 546.463C419.899 546.638 419.646 546.935 419.283 547.529C418.404 548.502 417.522 549.013 416.551 549.877C416.353 550.103 416.338 550.044 416.369 550.048C415.536 550.556 414.7 551.102 413.684 551.888C411.352 553.345 409.982 555.782 406.865 555.87C419.072 543.434 431.859 531.384 443.036 517.802C454.885 503.402 465.411 488.127 475.802 472.374C476.421 472.466 476.961 472.871 477.635 473.499Z" fill="#4B6973"/>
<path d="M238.793 94.054C230.821 83.2668 223.191 72.6446 215.366 62.1605C213.324 59.4243 212.573 57.111 215.658 54.421C219.184 53.8039 220.689 56.0701 222.233 58.1879C226.744 64.3761 230.403 71.0444 234.078 78.0156C237.425 79.3328 237.607 82.4709 239.028 84.724C242.384 90.0455 245.463 95.5307 247.885 101.687C245.636 103.375 244.656 101.866 243.737 100.19C242.517 97.9641 241.454 95.6169 238.793 94.054Z" fill="#643931"/>
<path d="M234.258 77.7475C232.194 78.3993 231.67 76.8071 230.76 75.3163C227.336 69.7047 223.716 64.2069 220.181 58.6598C219.179 57.0891 217.94 55.747 216.154 54.4748C219.51 49.7439 223.09 45.233 226.938 40.5518C228.376 41.8351 228.218 43.5649 228.153 45.2245C227.773 54.9937 230.484 64.2583 233.094 73.7953C233.548 75.1282 233.833 76.2356 234.258 77.7475Z" fill="#EB4A4A"/>
<path d="M26.5803 783.769C24.1621 789.684 23.6463 795.713 22.1605 801.864C12.0123 792.783 11.2619 785.987 19.0943 771.426C21.4985 775.744 25.4444 778.696 26.5803 783.769Z" fill="#812E2E"/>
<path d="M277.582 510.132C280.726 519.378 283.394 528.641 289.521 536.726C288.058 537.875 286.844 537.852 285.274 536.358C281.408 532.68 279.83 533.267 278.532 538.624C276.47 526.303 273.044 509.577 270.412 497.121C270.275 496.471 271.323 499.673 272.532 499.436C273.444 499.258 273.651 500.305 274.311 501.049C275.858 504.025 278.974 506.136 277.582 510.132Z" fill="#E6B284"/>
<path d="M245.243 435.591C251.08 436.437 253.914 439.456 254.936 445.416C255.375 447.972 257.053 449.672 259.681 450.885C259.979 452.783 259.983 454.594 259.959 456.793C257.706 458.916 258.648 461.439 258.476 463.578C258.269 466.152 258.229 468.685 256.689 471.177C254.279 469.048 254.163 465.967 252.929 462.977C252.855 462.649 252.948 462.203 252.779 462.047C252.61 461.89 252.672 461.899 252.664 461.928C251.77 460.128 251.704 458.069 251.003 455.866C250.819 448.522 247.029 442.513 245.243 435.591Z" fill="#60372F"/>
<path d="M249.143 93.9718C253.073 93.6363 253.132 90.8896 253.063 88.0311C252.919 82.0606 254.358 80.8541 260.794 81.824C261.768 90.3424 260.009 98.7348 260.108 107.787C254.36 104.461 252.785 98.5967 249.143 93.9718Z" fill="#412E2B"/>
<path d="M334.67 43.3265C345.742 32.215 359.317 25.1773 374.644 21.1947C376.27 20.7723 377.897 20.3543 380.796 19.6055C378.669 22.1643 376.442 22.3851 374.699 23.1256C362.338 28.3756 350.626 34.6528 340.264 43.1684C339.326 43.9391 338.16 44.4456 336.783 45.142C335.952 44.6323 335.437 44.0553 334.67 43.3265Z" fill="#272C31"/>
<path d="M280.175 34.6337C283.451 34.5692 282.639 36.7576 282.198 38.3866C279.458 48.4988 277.102 58.6972 275.516 69.0336C275.145 71.4521 273.185 71.0436 272.043 71.9525C271.538 72.3541 271.709 70.82 271.258 70.0133C271.058 57.3982 276.392 46.3575 280.175 34.6337Z" fill="#EB4A4A"/>
<path d="M263.722 564.846C262.748 564.339 262.208 563.591 261.561 562.945C256.331 557.722 255.056 551.732 256.991 544.653C258.501 539.124 259.176 533.377 260.283 527.359C262.077 527.241 262.003 528.587 262.036 529.777C262.346 541.163 263.464 552.492 264.478 563.83C264.502 564.098 264.256 564.383 263.722 564.846Z" fill="#DFA678"/>
<path d="M209.095 69.5922C203.214 69.0853 197.877 71.1733 192.461 73.2893C187.114 75.378 181.947 77.9997 175.841 79.0796C183.566 72.7035 192.767 68.3153 202.557 65.1077C206.164 63.9259 206.985 67.6734 209.095 69.5922Z" fill="#EB4A4A"/>
<path d="M320.455 516.719C318.098 518.069 316.376 520.156 313.331 519.893C310.922 519.686 311.069 521.871 310.949 523.539C310.884 524.452 310.816 525.573 309.658 525.656C308.45 525.743 308.197 524.64 308.213 523.725C308.255 521.262 306.527 519.929 304.684 518.285C313.519 515.578 322.592 513.139 331.631 510.583C335.796 509.405 339.892 507.997 344.392 506.649C342.552 510.219 338.224 509.523 334.963 510.92C332.249 512.083 330.419 513.116 330.507 516.855C326.739 510.034 323.754 516.23 320.455 516.719Z" fill="#DE765D"/>
<path d="M263.455 565.229C263.745 558.848 262.038 552.819 261.877 546.657C261.712 540.312 261.178 533.976 260.575 527.314C260.042 525.177 260.793 523.567 261.592 521.669C262.773 533.237 263.725 545.062 264.72 556.885C264.975 559.907 265.369 562.918 265.657 566.337C264.934 566.299 264.253 565.859 263.455 565.229Z" fill="#4B6973"/>
<path d="M500.262 228.341C494.672 227.481 489.044 226.292 483.003 225.065C487.904 217.077 495.645 219.458 500.262 228.341Z" fill="#E3AC7D"/>
<path d="M238.595 94.1443C240.656 93.4863 241.822 94.3829 242.952 96.2195C244.177 98.2101 244.588 100.94 247.617 101.946C250.531 103.935 251.471 106.973 253.144 109.509C253.71 110.368 255.047 111.767 253.351 112.602C251.933 113.3 251.385 111.619 250.504 110.819C245.373 106.167 242.398 100.052 238.595 94.1443Z" fill="#2B282A"/>
<path d="M273.669 505.918C271.949 503.299 270.952 500.501 270.482 497.171C275.23 499.64 279.329 503.316 283.876 506.88C282.007 509.524 281.67 518.782 279.818 516.859C278.609 515.604 278.407 511.81 273.669 505.918Z" fill="#DE765D"/>
<path d="M256.453 471.614C256.417 467.528 258.679 463.851 256.41 459.866C255.596 458.437 257.481 457.288 259.614 457.22C260.139 463.279 258.02 469.367 261.054 475.874C257.534 475.362 257.288 473.395 256.453 471.614Z" fill="#412E2B"/>
<path d="M177.924 131.361C181.806 134.119 181.396 137.068 178.736 140.172C178.182 140.819 178.064 142.181 176.886 141.713C176.154 141.423 175.504 140.485 175.204 139.698C174.254 137.208 174.329 134.652 175.308 131.793C176.159 131.436 176.866 131.407 177.924 131.361Z" fill="#2B282A"/>
<path d="M408.245 55.2324C408.106 53.5661 405.289 51.0317 408.42 50.4227C410.452 50.0275 413.998 49.7736 414.421 53.9684C412.613 55.2994 410.612 55.2245 408.245 55.2324Z" fill="#372B29"/>
<path d="M227.279 92.5083C226.648 92.8256 225.93 92.8359 224.856 92.8457C221.962 90.0888 219.896 87.0997 219.669 82.9927C223.056 85.2913 224.898 88.9142 227.279 92.5083Z" fill="#412E2B"/>
<path d="M77.7122 735.093C76.4772 735.639 75.252 735.9 74.0193 735.94C73.1736 735.967 72.3667 734.687 72.6076 734.614C75.9262 733.605 73.4754 728.119 78.2767 728.146C78.3189 730.333 78.0189 732.523 77.7122 735.093Z" fill="#252D36"/>
<path d="M302.166 517.988C294.089 519.123 292.675 518.453 290.292 512.028C293.991 514.019 297.406 516.865 302.166 517.988Z" fill="#DE765D"/>
<path d="M383.696 372.244C385.989 371.841 387.723 374.172 390.587 373.744C391.991 374.694 392.526 375.873 392.651 377.6C388.789 377.189 386.472 374.562 383.696 372.244Z" fill="#D46A54"/>
<path d="M352.823 503.971C353.205 505.002 353.337 506.335 351.725 506.078C349.509 505.725 347.525 506.729 345.015 506.735C346.886 504.828 349.812 504.792 352.823 503.971Z" fill="#DE765D"/>
<path d="M289.477 511.1C287.334 511.369 285.119 511.225 284.669 507.96C286.202 508.68 287.755 509.758 289.477 511.1Z" fill="#DE765D"/>
<path d="M250.734 455.525C252.501 457.185 252.86 459.135 252.661 461.596C251.738 460.02 250.821 458.084 249.852 455.823C250.009 455.506 250.216 455.512 250.734 455.525Z" fill="#92493C"/>
<path d="M416.641 550.051C415.968 548.379 417.633 548.191 418.782 547.28C419.251 547.326 419.421 547.484 419.364 547.906C418.401 548.779 417.664 549.389 416.641 550.051Z" fill="#DFA678"/>
<path d="M413.788 552.018C413.66 550.824 414.654 550.346 416.066 550.001C415.626 550.674 414.852 551.295 413.788 552.018Z" fill="#DFA678"/>
<path d="M419.471 548.056C419.13 548.002 419.123 547.835 419.098 547.418C419.298 546.919 419.514 546.671 419.988 546.419C421.231 547.235 420.04 547.457 419.471 548.056Z" fill="#E3AC7D"/>
<path d="M405.108 557.245C405.144 556.937 405.449 556.581 405.979 556.136C405.929 556.43 405.652 556.814 405.108 557.245Z" fill="#4B6973"/>
<path d="M175.4 79.0845C175.429 79.1751 175.251 79.2785 174.951 79.3075C174.849 79.2865 175.216 79.1506 175.4 79.0845Z" fill="#C24C34"/>
<path d="M321.082 64.4604C321.079 64.6029 320.832 64.8502 320.333 65.2022C320.334 65.0597 320.586 64.8125 321.082 64.4604Z" fill="#60372F"/>
<path d="M420.539 98.8301C420.528 98.8031 420.551 98.8571 420.539 98.8301V98.8301Z" fill="#372B29"/>
<path d="M353.967 503.501C353.987 503.679 353.765 503.823 353.325 503.994C353.235 503.764 353.44 503.579 353.967 503.501Z" fill="#DE765D"/>
<path d="M356.087 503.136C356.416 502.413 356.892 502.14 356.877 503.457C356.617 503.552 356.462 503.437 356.087 503.136Z" fill="#DC7259"/>
<path d="M433.704 139.226C433.693 139.2 433.715 139.251 433.704 139.226V139.226Z" fill="#372B29"/>
<path d="M252.661 462.083C252.87 462.009 252.994 462.195 252.918 462.548C252.855 462.649 252.712 462.276 252.661 462.083Z" fill="#92493C"/>
<path d="M397.519 377.435C397.525 377.431 397.26 377.282 397.26 377.282C397.26 377.282 397.439 377.304 397.472 377.378C397.504 377.451 397.513 377.44 397.519 377.435Z" fill="#392C2A"/>
<path d="M425.247 365.06C425.236 365.034 425.259 365.087 425.247 365.06V365.06Z" fill="#392C2A"/>
<path d="M551.248 805.115C551.326 805.075 551.351 805.405 551.351 805.405C551.351 805.405 551.17 805.154 551.248 805.115Z" fill="#252D36"/>
<path d="M48.8272 729.699C47.3704 731.056 46.1636 730.989 45.3766 729.418C45.2032 729.072 45.5814 728.077 45.9424 727.929C47.4429 727.31 48.6114 727.682 48.8272 729.699Z" fill="#272F37"/>
<path d="M41.8814 726.182C42.3067 726.478 42.7543 726.823 43.2019 727.169C43.1052 727.278 43.0084 727.387 42.9116 727.496C42.6017 727.209 42.2917 726.923 41.8932 726.41C41.8047 726.184 41.9036 726.231 41.8814 726.182Z" fill="#272F37"/>
<path d="M193.373 246.433C195.811 237.619 203.54 233.836 209.604 228.21C211.368 226.866 213.154 226.617 215.067 226.454C228.038 225.346 241.022 226.329 253.994 226.078C259.106 225.979 259.726 230.528 262.565 233.225C263.141 233.523 263.41 233.714 263.803 234.136C263.951 234.334 263.775 234.151 263.68 234.235C263.983 234.357 264.306 234.535 264.697 235.082C264.832 235.332 264.752 235.173 264.671 235.214C265.305 235.461 265.34 236.096 265.598 236.929C265.682 237.214 265.642 237.103 265.587 237.128C274.675 244.522 278.918 254.314 279.011 265.564C279.121 278.932 277.244 292.256 277.26 305.644C277.26 306.253 277.253 306.862 277.245 307.858C276.702 310.146 275.687 311.929 275.783 314.336C275.83 315.398 275.959 316.092 275.953 317.129C269.296 330.379 269.326 330.535 279.852 340.793C280.289 341.219 280.62 341.75 281.377 342.319C283.575 343.996 285.508 345.488 287.454 346.963C288.468 347.731 289.129 348.478 287.354 349.492C285.825 351.428 283.999 351.725 281.573 351.256C280.971 351.215 280.731 351.193 280.136 351.105C279.325 350.9 278.888 350.716 278.171 350.313C276.04 348.873 274.477 347.183 271.815 346.564C271.071 346.2 270.677 345.953 270.286 345.698C258.072 337.742 256.849 334.006 261.828 320.571C265.106 311.724 265.311 302.333 266.534 293.144C267.016 289.523 267.724 285.925 268.096 281.913C270.414 271.674 269.439 262.049 265.678 252.334C265.412 251.855 265.312 251.666 265.063 251.205C264.808 250.763 264.702 250.593 264.421 250.188C263.756 249.338 263.151 248.868 262.097 248.458C248.615 243.625 234.858 242.905 221.031 242.507C216.923 242.388 212.98 243.006 208.675 244.048C204.969 245.318 201.635 246.5 198.226 247.466C196.452 247.968 194.63 248.669 193.373 246.433Z" fill="#141F28"/>
<path d="M387.727 212.904C397.025 216.54 405.289 221.41 413.642 226.388C402.648 224.788 391.575 224.807 380.581 223.82C376.515 223.455 372.611 223.3 368.521 224.065C348.737 227.765 329.212 232.548 309.633 237.111C307.695 237.562 305.837 238.337 303.752 239.023C302.962 235.16 305.223 232.024 305.49 228.216C306.153 219.884 312.013 218.588 318.619 217.464C334.427 214.775 352.603 208.181 368.521 206C372.807 205.413 379 208.5 379 208.5L387.727 212.904Z" fill="#121E28"/>
<path d="M275.437 308.826C275.715 296.568 275.684 284.504 276.807 272.543C277.989 259.953 274.241 249.185 266.717 239.31C266.348 238.825 266.062 238.28 265.634 237.459C265.841 237.147 266.273 237.006 266.442 237.152C272.984 242.818 281.14 247.321 283.822 256.058C285.795 262.489 285.04 269.408 284.308 276.015C282.872 288.99 280.759 301.893 278.968 314.831C278.727 316.574 278.047 318.03 276.497 319.441C275.012 320.037 274.721 319.299 274.478 318.077C274.396 317.076 274.412 316.377 274.559 315.35C275.627 313.13 275.419 311.065 275.437 308.826Z" fill="#F4D4B1"/>
<path d="M274.253 318.08C274.854 318.285 275.33 318.795 276.012 319.47C272.651 325.129 272.699 331.786 276.618 335.166C277.109 338.29 280.459 339.368 281.502 342.247C275.815 340.455 273.199 335.209 269.577 330.964C268.205 329.354 268.84 327.951 269.882 326.443C271.618 323.929 273.499 321.465 274.253 318.08Z" fill="#F2D0B1"/>
<path d="M265.697 236.907C265.28 236.77 264.877 236.326 264.533 235.568C264.965 235.703 265.339 236.151 265.697 236.907Z" fill="#F4D4B1"/>
<path d="M263.783 234.156C263.645 234.19 263.339 234.046 262.938 233.636C263.1 233.573 263.357 233.776 263.783 234.156Z" fill="#F4D4B1"/>
<path d="M264.688 235.099C264.478 235.207 264.124 235.081 263.677 234.637C263.904 234.501 264.225 234.683 264.688 235.099Z" fill="#F4D4B1"/>
<path d="M256.662 393.775C249.993 398.608 245.183 404.582 240.846 411.309C238.923 407.325 238.967 402.632 235.906 398.728C237.011 395.245 237.578 391.945 238.423 388.74C241.85 375.741 252.815 370.273 263.214 364.264C266.773 362.207 269.949 359.238 274.697 358.747C278.575 360.232 282.752 360.261 285.641 363.21C286.819 364.413 287.837 363.901 288.841 362.935C290.151 361.674 291.673 361.062 293.852 361.631C294.521 361.618 294.867 361.597 295.472 361.609C297.573 360.81 298.074 359.051 298.956 357.478C300.657 354.441 302.573 351.485 306.972 351.475C307.963 354.155 307.725 357.288 311.67 357.563C312.623 357.629 313.136 358.642 313.403 359.534C314.546 363.366 309.77 370.337 305.586 371.001C303.528 371.328 300.776 371.013 302.248 374.609C303.626 378.032 300.409 379.59 299.057 382.26C296.687 383.547 294.927 382.95 293.127 381.169C292.274 379.037 291.38 377.849 288.971 377.852C279.546 377.866 270.926 380.351 262.998 385.269C259.805 387.249 258.489 390.497 256.662 393.775Z" fill="#54352E"/>
<path d="M335.966 260.533C334.419 260.844 333.027 260.87 331.22 260.873C329.921 259.799 329.193 258.553 328.124 257.729C323.542 254.199 321.577 253.859 328.352 247.653C329.033 247.029 329.741 246.432 330.594 245.557C330.962 245.055 331.179 244.826 331.615 244.494C331.828 244.387 331.758 244.403 331.778 244.432C333.515 241.124 336.824 240.066 340.102 239.062C347.547 236.784 355.067 234.997 362.993 236.033C364.413 236.219 365.794 236.256 367.117 237.657C373.71 240.083 379.984 242.297 385.892 245.39C387.428 246.195 389.204 246.91 389.171 248.843C389.137 250.903 387.128 251.181 385.578 251.857C384.033 252.53 382.6 253.446 380.785 254.335C379.516 254.111 378.937 253.39 378.304 252.712C376.138 250.397 374.527 250.42 373.311 253.647C370.824 260.245 364.891 260.575 359.025 260.796C352.801 261.032 348.408 258.184 346.651 252.423C345.363 248.2 344.738 247.766 340.084 250.245C335.556 252.658 334.65 255.861 335.966 260.533Z" fill="#141F28"/>
<path d="M336.22 260.783C335.784 260.667 335.752 260.518 335.728 260.368C335.324 257.866 330.79 257.284 332.252 254.239C333.363 251.927 336.051 250.715 338.294 249.319C339.346 248.665 340.301 247.853 341.383 247.259C345.855 244.803 346.445 245.068 347.563 249.853C349.065 256.282 352.58 259.337 358.683 259.516C366.426 259.743 370.385 257.309 372.252 251.589C372.641 250.396 371.458 247.259 374.438 248.259C376.945 249.1 381.154 249.081 380.339 254.068C380.452 254.415 380.57 254.431 380.58 254.374C380.316 254.627 380.058 254.949 379.699 255.57C377.517 257.342 375.45 258.829 373.188 260.544C360.869 262.834 348.749 260.724 336.22 260.783Z" fill="#F2D0B1"/>
<path d="M294.126 361.673C293.875 362.352 294.032 364.179 293.079 363.496C290.873 361.913 290.391 363.299 289.807 364.741C288.51 367.937 286.876 367.98 284.89 365.343C283.484 363.476 282.193 361.61 279.241 362.431C277.354 362.956 276.816 360.807 275.166 360.03C275.958 355.782 278.363 354.293 284.838 353.914C285.448 353.969 285.685 354.04 286.176 354.377C288.239 355.896 291.023 355.609 292.145 358.341C292.3 359.009 292.479 359.342 292.966 359.815C293.194 359.996 293.13 359.957 293.15 359.926C293.485 360.365 293.572 360.912 293.925 361.626C294.131 361.812 294.077 361.707 294.126 361.673Z" fill="#643931"/>
<path d="M332.771 240.178C341.419 234.258 350.866 231.436 361.061 231.794C367.75 232.03 374.749 231.581 381.646 235.994C379.625 235.994 378.562 235.994 377.165 236.036C374.772 237.108 372.899 235.956 370.607 235.457C369.547 235.252 368.838 235.192 367.772 235.148C366.207 236.021 364.818 236.153 363.396 236.05C353.872 235.356 344.882 237.6 336.068 240.787C334.856 241.226 333.714 241.692 332.771 240.178Z" fill="#1E1D25"/>
<path d="M317.753 319.084C318.578 319.374 319.124 319.673 319.649 320.005C324.529 323.093 329.55 326.816 328.364 332.963C327.096 339.536 321.469 343.088 314.325 345.612C315.361 342.898 317.098 341.619 318.509 340.208C325.266 333.455 325.5 330.447 319.66 322.832C319.003 321.976 318.34 321.125 317.583 319.972C317.479 319.484 317.472 319.297 317.753 319.084Z" fill="#1E1D25"/>
<path d="M332.619 240.045C337.671 238.657 342.445 237.465 347.239 236.355C353.647 234.872 360.111 233.958 367.066 235.019C367.414 235.856 367.411 236.547 367.408 237.584C355.044 236.348 343.209 237.552 332.112 244.366C331.763 243.039 331.388 241.574 332.619 240.045Z" fill="#D47D61"/>
<path d="M298.571 344.292C296.482 344.614 296.633 341.848 294.716 342.201C295.403 340.509 297.056 339.753 298.425 338.824C301.674 336.617 305.291 335.188 309.297 334.942C310.544 334.866 312.007 334.829 312.404 336.338C312.834 337.971 311.329 338.463 310.208 338.759C306.065 339.854 302.414 341.876 298.571 344.292Z" fill="#1E1D25"/>
<path d="M307.411 351.5C303.747 353.002 301.59 355.745 299.581 358.617C298.655 359.942 298.333 361.82 295.953 361.779C296.278 360.548 296.975 359.502 297.345 358.356C298.913 353.492 301.751 350.178 307.766 350.049C307.948 350.449 307.77 350.893 307.411 351.5Z" fill="#1E1D25"/>
<path d="M286.62 354.454C286.43 354.644 285.981 354.542 285.751 354.544C284.674 354.488 283.825 354.497 282.657 354.386C280.142 353.729 277.419 353.468 279.768 349.928C282.164 349.733 284.284 349.732 286.801 349.71C287.068 351.215 286.939 352.74 286.62 354.454Z" fill="#E8AC7B"/>
<path d="M370.462 235.564C372.208 235.509 374.16 235.706 376.471 235.991C374.713 237.392 372.654 237.417 370.462 235.564Z" fill="#D47D61"/>
<path d="M316.501 318.685C316.356 318.554 316.179 318.316 316.04 318.058C316.014 318.01 316.139 317.884 316.195 317.794C316.29 318.053 316.386 318.312 316.501 318.685Z" fill="#1E1D25"/>
<path d="M294.171 361.524C293.832 361.358 293.533 360.904 293.202 360.172C293.518 360.342 293.864 360.789 294.171 361.524Z" fill="#54352E"/>
<path d="M310.712 349.98C310.919 350.022 310.607 350.213 310.607 350.213C310.607 350.213 310.274 350.145 310.181 350.064C310.087 349.983 310.506 349.937 310.712 349.98Z" fill="#1E1D25"/>
<path d="M316.463 318.872C316.811 318.847 317.177 318.798 317.792 318.904C318.041 319.059 317.776 319.376 317.631 319.524C317.17 319.606 316.93 319.436 316.644 318.982C316.52 318.799 316.482 318.847 316.463 318.872Z" fill="#1E1D25"/>
<path d="M379.819 255.64C379.671 255.383 379.76 254.911 380.219 254.377C380.412 254.685 380.233 255.054 379.819 255.64Z" fill="#141F28"/>
<path d="M331.616 244.499C331.626 244.636 331.423 244.884 330.986 245.212C330.969 245.064 331.187 244.837 331.616 244.499Z" fill="#D47D61"/>
<path d="M293.113 359.719C292.943 359.715 292.691 359.434 292.326 358.892C292.486 358.901 292.759 359.172 293.113 359.719Z" fill="#54352E"/>
<path d="M419.07 361.892C418.286 361.535 418.13 361.135 419.399 361.221C419.479 361.452 419.365 361.58 419.07 361.892Z" fill="#111E28"/>
<path d="M328.423 553.961C327.965 553.563 327.861 553.111 327.869 552.662C327.909 550.495 324.751 548.399 327.038 546.439C328.53 545.161 330.824 549.011 333.026 546.688C333.082 546.628 333.753 546.909 333.762 547.054C334.065 551.87 337.292 549.106 339.782 549.135C340.47 549.407 340.675 549.765 340.713 550.506C340.344 551.726 339.38 551.863 338.487 552.584C335.196 553.832 331.99 553.693 328.423 553.961Z" fill="#DC7259"/>
<path d="M339.932 551.218C340.138 550.542 340.138 550.135 340.138 549.423C342.664 547.843 344.046 551.052 346.562 550.824C344.794 551.582 342.819 552.144 340.496 552.699C339.814 552.355 339.673 551.953 339.932 551.218Z" fill="#DB755B"/>
<path d="M339.857 551.021C340.14 551.338 340.141 551.726 340.145 552.403C339.728 552.728 339.309 552.763 338.574 552.802C338.416 552.028 338.753 551.383 339.857 551.021Z" fill="#DF785D"/>
<path d="M325.288 554.692C325.236 554.394 325.496 554.304 325.928 554.53C325.872 554.653 325.706 554.669 325.288 554.692Z" fill="#DC7259"/>
<path d="M458.668 180.048C459.335 180.442 460.004 180.858 459.975 181.722C459.969 181.87 459.594 182.006 459.39 182.148C459.134 181.647 458.878 181.146 458.607 180.38C458.591 180.114 458.642 180.069 458.668 180.048Z" fill="#111E28"/>
<path d="M461.008 184.197C460.986 184.206 461.03 184.188 461.008 184.197V184.197Z" fill="#111E28"/>
<path d="M460.537 232.383C460.544 232.379 460.821 232.553 460.821 232.553C460.821 232.553 460.605 232.55 460.564 232.475C460.522 232.399 460.531 232.388 460.537 232.383Z" fill="#111E28"/>
<path d="M474.178 145.642C474.155 145.652 474.201 145.632 474.178 145.642V145.642Z" fill="#111E28"/>
<path d="M464.756 175.932C464.749 175.911 464.764 175.952 464.756 175.932V175.932Z" fill="#111E28"/>
<path d="M255.983 392.567C255.14 387.165 258.11 384.548 261.992 381.969C270.369 376.404 279.347 373.776 289.485 374.812C291.816 375.05 293.492 375.437 293.618 378.45C285.797 380.516 277.708 381.183 271.404 383.556C276.933 382.361 283.953 381.812 290.832 380.458C291.443 380.338 292.168 380.237 292.689 380.512C298.229 383.434 303.434 381.172 308.437 379.234C315.485 376.504 322.302 379.104 329.561 379.376C330.848 379.454 331.647 379.984 332.898 380.206C333.7 380.258 334.157 380.267 334.95 380.27C337.842 380.408 340.434 379.937 342.74 380.603C341.173 380.011 339.306 380.367 337.13 380.272C330.626 379.739 324.457 379.183 318.43 377.833C313.464 376.72 308.726 376.044 304.101 379.017C302.753 379.883 301.009 380.52 298.896 379.751C298.339 376.8 300.88 375.547 302.066 373.226C306.942 370.268 312.122 370.723 317.033 371.932C333.857 376.074 351.054 377.9 368.161 380.316C371.5 380.788 375.975 380.183 374.786 385.966C374.516 387.278 375.396 388.491 376.995 388.164C378.731 387.809 379.152 388.93 379.973 390.181C381.817 397.99 384.546 405.418 383.961 413.783C380.608 412.589 380.66 408.136 376.645 405.635C378.095 412.676 373.774 416.18 369.677 419.24C360.151 426.355 352.368 435.036 344.781 443.952C338.858 450.914 337.312 450.835 330.869 443.781C326.996 439.539 323.794 434.849 320.319 429.958C317.941 428.656 317.096 426.498 315.608 424.477C311.7 411.548 311.7 411.552 297.984 410.842C297.038 410.793 296.136 410.552 295.866 411.874C293.232 424.761 286.058 435.535 279.1 446.439C276.597 450.361 274.943 449.032 273.156 446.076C270.144 441.093 267.144 436.102 263.932 430.88C263.305 429.87 262.885 429.094 262.252 428.146C260.585 426.994 260.604 425.38 260.034 423.667C259.853 423.393 259.858 423.387 259.863 423.381C259.031 422.779 259.434 421.936 259.405 421.179C259.321 421.758 259.353 422.345 259.102 423.169C256.004 422.827 256.436 420.297 256.148 418.472C254.81 409.991 254.5 401.473 255.983 392.567Z" fill="#161E27"/>
<path d="M332.897 519.687C332.779 518.828 332.972 517.896 334 517.56C334.51 517.394 334.944 517.726 334.841 518.28C334.684 519.135 333.945 519.429 332.897 519.687Z" fill="#DF785D"/>
<path d="M282.809 75.9302C281.825 76.3047 280.83 76.3013 279.467 76.2874C283.606 65.2017 285.981 54.2228 291.16 43.3529C293.345 38.7665 310 31.0005 310 31.0005C310.255 31.2997 313 30.5002 311 32.5C311 32.5 292.935 47.4041 291.16 51.998C288.854 57.9653 286.284 63.8345 283.903 69.7749C283.167 71.6094 282.591 73.5224 282.809 75.9302Z" fill="#272C31"/>
<path d="M311.292 32.1918C311.019 30.6874 312.008 29.6518 313.125 28.8249C321.35 22.7354 329.431 16.4198 338.836 12.0648C340.235 11.4169 341.796 11.0681 343.314 10.7109C344.106 10.5247 344.956 10.7844 345.158 11.6906C345.311 12.3779 344.718 12.7289 344.115 12.9809C332.371 17.8873 322.196 25.3208 311.292 32.1918Z" fill="#272C31"/>
<path d="M299.066 65.2493C299.739 62.0068 302.622 60.3934 305.82 57.3081C304.641 61.8375 302.146 63.6242 299.066 65.2493Z" fill="#412E2B"/>
<path d="M314.43 49.7529C313.847 52.6254 311.746 54.3968 308.275 56.1431C309.617 52.6846 311.697 51.1007 314.43 49.7529Z" fill="#412E2B"/>
<path d="M294.571 69.7155C294.79 68.9251 295.174 68.4647 295.821 68.6197C296.035 68.6711 296.334 69.3272 296.23 69.5312C295.893 70.1958 295.368 70.7004 294.571 69.7155Z" fill="#412E2B"/>
<path d="M300.587 40.4696C300.762 39.516 301.104 38.6545 302.099 38.3266C302.632 38.1511 303.17 38.5621 302.894 39.0063C302.529 39.593 301.816 39.9733 300.976 40.5102C300.7 40.5781 300.624 40.506 300.587 40.4696Z" fill="#272C31"/>
<path d="M309.767 33.1924C309.645 33.5035 309.202 33.7976 308.432 34.0703C308.553 33.7577 308.999 33.4665 309.767 33.1924Z" fill="#272C31"/>
<path d="M291.353 73.1929C291.295 73.2554 291.093 73.0356 291.093 73.0356C291.093 73.0356 291.411 73.1303 291.353 73.1929Z" fill="#3A2C2A"/>
<path d="M315.859 48.7662C315.873 48.6103 316.053 48.4274 316.261 48.2837C316.311 48.2493 316.455 48.345 316.556 48.3809C316.382 48.5052 316.209 48.6295 315.859 48.7662Z" fill="#412E2B"/>
<path d="M297.737 66.2662C297.855 66.2509 297.631 66.5346 297.631 66.5346C297.631 66.5346 297.618 66.2816 297.737 66.2662Z" fill="#412E2B"/>
<path d="M298.768 65.325C298.639 65.599 298.452 65.8212 298.037 66.1298C297.853 66.2509 297.817 66.2217 297.802 66.2041C297.934 65.9321 298.122 65.7114 298.535 65.4015C298.717 65.2785 298.753 65.3078 298.768 65.325Z" fill="#412E2B"/>
<path d="M306.741 56.5692C306.704 56.5856 306.778 56.5528 306.741 56.5692V56.5692Z" fill="#412E2B"/>
<path d="M308.186 34.125C308.098 34.4327 307.918 34.6628 307.474 34.9479C307.277 35.0533 307.226 35.0094 307.202 34.9839C307.299 34.6841 307.48 34.4551 307.913 34.16C308.106 34.0485 308.161 34.0978 308.186 34.125Z" fill="#272C31"/>
<path d="M310.997 32.2785C310.895 32.5741 310.712 32.8012 310.28 33.097C310.089 33.2095 310.04 33.1664 310.017 33.1413C310.11 32.8385 310.29 32.6085 310.728 32.3176C310.922 32.2091 310.974 32.2537 310.997 32.2785Z" fill="#272C31"/>
<path d="M314.736 49.687C314.879 49.4215 315.073 49.2019 315.496 48.8983C315.683 48.7786 315.684 48.7799 315.684 48.7799C315.549 49.0451 315.366 49.2731 314.95 49.5886C314.766 49.7128 314.744 49.6972 314.736 49.687Z" fill="#412E2B"/>
<path d="M315.5 424.5C316.5 425.5 320 429 321.5 431.5C318.5 430.5 317.5 429.5 315.5 424.5Z" fill="#3B2C29"/>
<path d="M425.756 38.8714C424.425 38.5197 422.985 38.4402 423.691 36.8974C424.337 35.4836 425.635 34.9944 427.152 35.7561C428.336 36.3507 430.109 36.6308 429.987 38.2952C429.885 39.6733 428.498 39.5216 427.408 39.3336C426.956 39.2558 426.523 39.082 425.756 38.8714Z" fill="#372B29"/>
<path d="M417.517 38.473C417.758 39.4973 417.342 39.9669 416.471 39.9591C416.292 39.9576 415.961 39.6173 415.966 39.4409C415.992 38.5987 416.471 38.1911 417.517 38.473Z" fill="#372B29"/>
<path d="M193.313 246.347C198.399 246.424 202.161 243.023 207.093 242.408C210.601 245.138 210.34 248.829 210.21 252.408C210.091 255.682 209.091 258.979 211.036 262.383C214.825 267.244 219.045 270.849 225.62 271.498C232.939 271.03 239.674 272.958 246.923 273.362C248.381 273.821 249.138 274.587 249.664 275.55C250.813 277.65 252.563 277.597 254.49 276.876C256.831 275.999 258.989 274.741 261.264 273.726C266.144 271.548 268.014 272.447 269.187 277.434C269.499 278.759 270.27 279.981 270.206 281.736C268.835 292.96 267.421 303.867 265.85 314.754C265.527 316.992 264.889 319.267 263.94 321.325C258.681 332.726 259.778 336.584 270.503 343.418C271.289 343.919 272.089 344.4 273.115 345.101C276.315 348.349 274.754 351.355 273.182 354.28C272.635 355.296 271.401 355.906 271.014 357.478C270.16 359.622 268.585 360.639 266.99 361.623C261.17 365.211 255.572 369.14 249.615 372.511C245.648 374.756 242.945 377.848 241.389 382.102C240.589 384.289 240.207 387.005 236.963 387.831C236.198 387.741 235.776 387.703 235.052 387.567C229.771 374.629 223.442 362.292 219.349 349.13C212.174 326.054 205.737 302.806 203.597 278.643C203.052 272.488 201.267 266.811 197.464 261.616C194.282 257.268 192.865 252.07 193.313 246.347Z" fill="#E9AD7C"/>
<path d="M477.471 273.643C477.274 272.213 477.207 271.128 476.879 270.123C472.553 256.839 476.83 242.922 487.986 234.285C489.076 233.44 490.326 232.737 491.6 232.185C493.569 231.332 495.874 230.924 496.978 233.139C498.088 235.363 495.327 235.601 494.229 236.662C493.57 237.299 492.714 237.738 491.966 238.291C486.413 242.403 485.969 244.196 488.979 250.194C489.578 251.389 490.574 252.457 490.292 254.522C488.683 252.699 487.351 251.174 486.001 249.663C484.054 247.485 482.792 247.15 481.659 250.515C479.848 255.895 479.949 260.672 483.141 265.734C487.727 273.01 487.289 277.3 481.684 283.622C477.809 287.992 474.401 292.164 477.25 298.495C472.751 292.379 472.964 286.061 475.607 279.603C476.355 277.775 477.665 276.147 477.471 273.643Z" fill="#161E27"/>
<path d="M323.247 533.124C323.416 533.363 323.426 533.598 323.435 533.834C323.299 533.83 323.163 533.827 323.027 533.823C323.046 533.589 323.066 533.354 323.247 533.124Z" fill="#DB755B"/>
<path d="M176.396 159.608C175.248 159.2 173.964 158.545 174.065 156.822C175.667 156.953 176.019 158.132 176.396 159.608Z" fill="#60372F"/>
<path d="M176.499 159.853C176.754 160.111 177.188 160.601 177.114 160.69C176.64 161.261 176.561 160.656 176.354 160.185C176.329 159.993 176.442 159.899 176.499 159.853Z" fill="#60372F"/>
<path d="M236.482 388.112C238.131 386.346 238.943 384.443 239.359 382.577C240.714 376.519 244.87 373.059 250.07 370.099C256.666 366.345 262.991 362.138 269.698 357.962C272.748 353.222 276.943 352.116 282.384 353.233C283.553 353.574 284.34 353.823 285.324 354.309C281.689 355.288 278.033 356.382 275.099 359.633C265.618 364.647 256.783 370.082 248.216 375.92C244.584 378.396 243.272 382.471 241.595 386.244C239.858 390.151 238.076 394.039 236.117 398.166C236.123 395.082 234.797 391.705 236.482 388.112Z" fill="#161E27"/>
<path d="M237.714 417.102C236.942 416.677 236.613 416.204 237.187 415.637C237.22 415.604 237.637 415.939 237.957 416.311C238.028 416.71 238.018 416.901 237.714 417.102Z" fill="#412E2B"/>
<path d="M238.353 418.027C237.93 418.016 237.728 417.797 237.502 417.321C237.421 417.113 237.723 416.815 237.881 416.667C238.284 416.693 238.484 416.907 238.742 417.356C238.846 417.55 238.518 417.869 238.353 418.027Z" fill="#412E2B"/>
<path d="M240.904 415.375C241.078 415.386 241.184 415.614 241.255 416.056C241.063 416.065 240.934 415.839 240.904 415.375Z" fill="#54352E"/>
<path d="M260.22 425.497C261.611 426.12 261.876 427.629 262.323 429.414C260.428 429.112 260.171 427.557 260.22 425.497Z" fill="#56352E"/>
<path d="M259.512 425.163C259.362 424.559 258.814 423.74 259.846 423.483C259.885 423.473 260.121 424.219 260.254 424.873C260.081 425.141 259.919 425.15 259.512 425.163Z" fill="#56352E"/>
<path d="M270.399 281.644C268.324 279.627 268.718 275.093 265.767 274.264C262.825 273.437 260.035 276.682 257.09 277.965C250.553 280.811 249.309 280.579 248.127 275.327C248.151 270.576 252.354 271.826 254.926 270.283C261.548 268.108 262.027 267.003 259.122 261.141C258.254 259.388 257.245 257.706 256.255 255.666C255.838 254.265 256.175 252.909 254.327 251.854C253.672 251.351 253.54 251.187 253.266 250.742C250.83 247.052 246.93 247.036 243.544 246.732C234.299 245.902 225.62 248.273 217.408 252.352C216.191 252.956 214.65 253.492 215.706 255.691C215.904 256.221 215.958 256.445 216.027 257.02C215.35 260.393 213.568 262.519 210.242 263.701C207.926 260.876 206.278 258.343 208.155 254.419C209.81 250.958 207.321 246.999 207.464 242.796C218.207 238.441 229.067 240.966 239.907 241.918C247.886 242.619 255.569 244.74 263.646 246.625C264.386 247.442 265.172 247.799 265.798 248.681C266.042 248.852 265.936 248.797 265.969 248.748C266.064 249.045 266.176 249.377 266.597 249.756C270.42 257.361 271.833 265.26 271.039 273.54C270.794 276.097 270.671 278.666 270.399 281.644Z" fill="#D9775C"/>
<path d="M282.56 353.163C278.04 352.911 274.568 355.907 270.286 357.69C269.93 354.613 272.824 352.533 273.24 349.463C273.401 348.27 273.951 347.145 273.414 345.615C275.16 346.281 276.974 347.25 278.965 348.465C279.227 349.044 279.389 349.339 279.837 349.739C280.056 349.879 279.982 349.812 280.013 349.774C280.1 351.305 279.895 353.051 282.56 353.163Z" fill="#D47D61"/>
<path d="M275.102 308.919C276.798 310.714 277.743 312.841 274.967 314.997C274.781 313.099 274.874 311.175 275.102 308.919Z" fill="#F2D0B1"/>
<path d="M265.997 248.525C265.136 248.69 264.512 248.182 264.049 247.07C265.01 246.731 265.65 247.239 265.997 248.525Z" fill="#E6B284"/>
<path d="M266.793 249.579C266.074 250.191 265.887 249.795 265.96 248.909C266.243 248.912 266.485 249.126 266.793 249.579Z" fill="#E6B284"/>
<path d="M280.113 349.588C279.833 349.632 279.609 349.386 279.265 348.925C279.485 348.905 279.828 349.102 280.113 349.588Z" fill="#E8AC7B"/>
<path d="M298.749 381.544C306.364 376.027 314.201 375.585 322.757 378.525C327.112 380.022 331.902 380.317 336.882 381.233C337.612 382.468 336.693 382.384 335.746 382.627C335.012 382.736 334.544 382.749 333.744 382.642C332.604 382.459 331.781 382.563 330.7 382.224C324.228 382.92 318.03 380.28 311.85 382.198C309.325 382.982 306.713 383.562 304.291 384.576C301.07 385.925 298.076 386.227 294.912 384.425C293.199 383.449 291.256 384.101 289.411 384.411C280.979 385.83 272.567 387.396 262.941 387.81C265.685 385.348 268.334 384.63 270.806 383.682C276.948 381.326 283.479 380.534 289.903 379.325C291.172 379.086 292.396 379.222 293.717 380.367C295.31 381.785 296.692 382.608 298.749 381.544Z" fill="#D5735B"/>
<path d="M308.07 366.582C306.94 367.407 306.382 369.367 305.048 368.281C303.744 367.22 304.462 365.5 305.215 364.152C305.809 363.087 306.774 362.658 307.903 363.297C309.331 364.107 309.971 365.138 308.07 366.582Z" fill="#4A322D"/>
<path d="M258.686 415.31C256.514 408.355 257.303 401.658 258.18 394.919C258.535 392.189 259.912 391.699 262.633 392.238C266.881 392.816 270.695 393.147 274.649 392.73C281.614 391.997 287.541 394.747 292.35 399.48C295.86 402.935 299.819 403.37 304.407 402.7C316.297 400.964 327.199 397.19 337.441 390.714C344.307 386.372 354.081 386.479 359.94 393.74C361.328 395.459 363.164 396.605 364.86 397.945C370.06 402.053 370.359 406.067 365.675 410.69C362.814 413.513 359.986 416.367 357.15 419.212C351.92 424.456 346.269 429.292 341.751 435.226C338.929 438.933 335.779 438.92 332.849 435.289C323.501 423.706 323.681 419.073 329.149 408.13C329.746 406.936 331.028 405.738 328.207 405.109C314.096 407.68 300.221 408.561 284.92 406.728C287.011 408.64 288.173 409.702 289.5 411.041C289.379 417.08 286.358 421.933 284.109 427.031C282.847 429.894 280.776 432.361 280.913 435.826C280.979 437.498 280.062 439.4 277.434 439.755C275.647 439.422 274.49 438.584 273.758 437.407C269.111 429.928 263.068 423.357 258.686 415.31Z" fill="#E8AC7B"/>
<path d="M327.799 405.312C329.947 403.703 332.188 402.888 335.457 402.103C333.383 406.531 330.431 409.258 328.944 412.958C326.594 418.807 326.939 423.915 330.694 428.926C332.169 430.896 333.508 432.962 334.926 434.972C336.43 437.105 338.042 437.494 339.663 435.115C346.413 425.204 356.038 417.908 364.303 409.378C368.47 405.076 368.769 402.637 363.644 399.62C360.146 397.56 358.425 393.917 355.129 391.87C349.181 388.177 343.303 388.477 337.212 392.933C326.431 400.821 313.924 403.59 300.904 404.925C297.077 405.318 294.023 404.147 291.367 401.176C286.408 395.629 279.612 394.104 272.396 394.019C269.386 393.983 266.481 393.5 263.311 392.526C269.284 392.24 275.489 391.543 281.677 390.617C286.772 389.854 291.838 389.076 297.055 390.077C299.941 390.63 302.92 390.315 305.869 389.534C317.991 386.326 330.446 388.012 342.747 387.437C345.119 387.326 347.419 387.136 349.657 386.506C355.421 384.882 360.257 383.857 366 384.5C367.183 384.632 368.967 387.219 369.602 388.138C372.304 392.045 375.407 395.755 376.039 400.967C373.412 401.674 373.616 403.253 373.982 405.05C374.66 408.37 373.468 410.859 370.654 412.963C358.206 422.267 347.502 433.41 336.257 444.456C330.893 438.481 326.717 431.769 322.121 425.358C319.983 422.375 317.684 419.564 316.35 416.034C315.477 413.727 315.883 412.931 318.051 411.939C321.573 410.328 324.995 408.438 327.799 405.312Z" fill="#DB755B"/>
<path d="M277.026 439.372C280.363 436.622 280.475 436.527 278.265 434.055C277.524 433.225 277.614 432.713 278.133 432.184C283.594 426.608 285.356 419.309 287.937 412.385C288.07 412.028 288.63 411.821 289.329 411.431C292.502 411.957 293.515 413.111 292.004 416.105C287.737 424.558 283.773 433.157 279.454 441.941C277.848 441.897 277.108 441.053 277.026 439.372Z" fill="#D9775C"/>
<path d="M276.952 438.76C277.771 439.871 278.409 440.715 279.133 441.871C277.736 445.511 276.484 446.271 274.261 442.431C269.978 435.03 265.281 427.856 260.737 420.599C259.769 419.053 258.517 417.647 258.466 415.371C260.717 416.078 261.925 418.073 263.234 419.938C265.733 423.498 267.108 427.622 271.524 430.084C274.182 431.566 274.03 436.196 276.952 438.76Z" fill="#D5735B"/>
<path d="M335.9 382.788C335.967 382.358 336.452 381.992 337.103 381.469C340.081 380.832 342.715 381.443 345.283 382.852C342.295 382.852 339.307 382.852 335.9 382.788Z" fill="#D46A54"/>
<path d="M330.706 382.219C331.229 382.174 332.045 382.223 333.137 382.397C332.608 382.453 331.804 382.384 330.706 382.219Z" fill="#D46A54"/>
<path d="M375.885 401.302C376.089 401.374 376.455 401.443 376.459 401.528C376.478 401.961 376.277 402.018 375.929 401.502C375.879 401.31 375.881 401.308 375.885 401.302Z" fill="#DB755B"/>
<path d="M257.065 254.316C258.832 256.506 260.147 258.497 261.203 260.694C264.26 267.055 263.939 268.031 256.751 271.781C255.537 270.709 256.029 269.505 256.249 268.064C251.385 272.592 246.066 274.496 239.475 272.486C235.68 271.328 233.311 268.979 231.751 265.715C230.406 262.9 229.775 259.733 225.335 262.578C220.83 265.464 220.619 265.496 223.701 270.049C224.311 270.952 224.845 271.869 224.634 273.299C219.589 270.653 213.295 269.776 209.953 264.046C210.845 261.229 212.845 259.56 214.952 257.592C215.209 257.095 215.317 256.865 215.553 256.275C215.855 255.726 216.029 255.537 216.543 255.156C226.684 249.879 237.273 248.886 248.098 249.458C251.591 249.643 254.726 251.021 257.065 254.316Z" fill="#141F28"/>
<path d="M224.935 273.612C224.32 273.352 224.166 273.082 223.955 272.868C216.436 265.265 216.538 264.661 226.472 259.713C228.098 258.903 229.65 257.739 231.666 258.021C233.319 267.992 236.974 271.783 245.109 271.993C250.749 272.139 254.445 268.987 255.973 262.47C259.451 265.309 259.674 268.151 256.592 271.564C254.091 273.411 250.438 271.386 248.407 274.768C240.575 274.04 232.988 273.591 224.935 273.612Z" fill="#F2D0B1"/>
<path d="M215.246 256.385C213.709 256.093 212.341 255.764 211.94 254.502C211.423 252.876 213.25 252.556 214.165 252.077C224.867 246.473 236.124 243.588 248.326 246.004C250.96 246.525 253.394 247.509 254.64 250.437C254.118 251.194 253.565 251.521 252.917 251.317C240.061 247.271 228.082 249.859 216.25 256.087C215.949 256.305 215.974 256.251 216.004 256.251C215.843 256.388 215.651 256.526 215.246 256.385Z" fill="#1E1D25"/>
<path d="M216.307 256.321C225.593 248.45 236.641 246.803 248.597 249.352C250.396 249.735 252.116 250.467 254.235 250.906C254.598 250.774 254.555 250.745 254.533 250.731C254.668 251.048 254.919 251.146 255.434 250.865C256.818 251.483 257.366 252.58 257.299 254.305C245.734 247.537 233.977 250.886 222.255 254.057C220.324 254.579 218.525 255.565 216.307 256.321Z" fill="#D47D61"/>
<path d="M215.047 256.411C215.214 256.028 215.397 255.949 215.807 256.061C215.887 256.541 215.74 256.832 215.347 257.224C215.088 257.122 215.075 256.919 215.047 256.411Z" fill="#D47D61"/>
<path d="M255.33 250.662C255.461 251.43 255.17 251.85 254.449 251.019C254.694 250.679 254.876 250.641 255.33 250.662Z" fill="#1E1D25"/>
</svg>
