<svg width="161" height="189" viewBox="0 0 161 189" fill="none" xmlns="http://www.w3.org/2000/svg">
<path d="M120.06 23.2998L159.715 47.25L160.08 94.5L159.715 141.75L120.06 165.7L80.04 189L40.0205 165.7L0.365234 141.75L0 94.5L0.365234 47.25L40.0205 23.2998L80.04 0L120.06 23.2998ZM43.5 29.4502L7.29395 51.5L6.95996 95L7.29395 138.5L43.5 160.55L80.04 182L116.58 160.55L152.786 138.5L153.12 95L152.786 51.5L116.58 29.4502L80.04 8L43.5 29.4502Z" fill="#80E1D6"/>
<path d="M63.5 140.96C72.608 140.96 80 134.094 80 125.633V110.307H63.5C54.392 110.307 47 117.173 47 125.633C47 134.094 54.392 140.96 63.5 140.96Z" fill="#0ACF83"/>
<path d="M47 94.98C47 86.5197 54.392 79.6533 63.5 79.6533H80V110.307H63.5C54.392 110.307 47 103.44 47 94.98Z" fill="#A259FF"/>
<path d="M47 64.3267C47 55.8663 54.392 49 63.5 49H80V79.6533H63.5C54.392 79.6533 47 72.787 47 64.3267Z" fill="#F24E1E"/>
<path d="M80 49H96.5C105.608 49 113 55.8663 113 64.3267C113 72.787 105.608 79.6533 96.5 79.6533H80V49Z" fill="#FF7262"/>
<path d="M113 94.98C113 103.44 105.608 110.307 96.5 110.307C87.392 110.307 80 103.44 80 94.98C80 86.5197 87.392 79.6533 96.5 79.6533C105.608 79.6533 113 86.5197 113 94.98Z" fill="#1ABCFE"/>
</svg>
