<svg width="201" height="230" viewBox="0 0 201 230" fill="none" xmlns="http://www.w3.org/2000/svg">
<path d="M140.26 43.5L179.915 67.4502L180.28 114.7L179.915 161.95L140.26 185.9L100.24 209.2L60.2205 185.9L20.5652 161.95L20.2 114.7L20.5652 67.4502L60.2205 43.5L100.24 20.2002L140.26 43.5ZM63.7 49.6504L27.4939 71.7002L27.1599 115.2L27.4939 158.7L63.7 180.75L100.24 202.2L136.78 180.75L172.986 158.7L173.32 115.2L172.986 71.7002L136.78 49.6504L100.24 28.2002L63.7 49.6504Z" fill="#80E1D6"/>
<g filter="url(#filter0_d_90_346)">
<path d="M140.002 43.9268V43.9277L179.417 67.7334L179.78 114.704L179.417 161.666L140.009 185.469L100.24 208.621L60.4714 185.469L21.0623 161.666L20.7 114.704L21.0623 67.7334L60.4783 43.9277L60.4773 43.9268L100.24 20.7783L140.002 43.9268Z" stroke="#80E1D6" shape-rendering="crispEdges"/>
</g>
<path d="M83.7 161.16C92.808 161.16 100.2 154.294 100.2 145.833V130.507H83.7C74.592 130.507 67.2 137.373 67.2 145.833C67.2 154.294 74.592 161.16 83.7 161.16Z" fill="#0ACF83"/>
<path d="M67.2 115.18C67.2 106.72 74.592 99.8535 83.7 99.8535H100.2V130.507H83.7C74.592 130.507 67.2 123.64 67.2 115.18Z" fill="#A259FF"/>
<path d="M67.2 84.5269C67.2 76.0665 74.592 69.2002 83.7 69.2002H100.2V99.8535H83.7C74.592 99.8535 67.2 92.9872 67.2 84.5269Z" fill="#F24E1E"/>
<path d="M100.2 69.2002H116.7C125.808 69.2002 133.2 76.0665 133.2 84.5269C133.2 92.9872 125.808 99.8535 116.7 99.8535H100.2V69.2002Z" fill="#FF7262"/>
<path d="M133.2 115.18C133.2 123.64 125.808 130.507 116.7 130.507C107.592 130.507 100.2 123.64 100.2 115.18C100.2 106.72 107.592 99.8535 116.7 99.8535C125.808 99.8535 133.2 106.72 133.2 115.18Z" fill="#1ABCFE"/>
<defs>
<filter id="filter0_d_90_346" x="-1.90735e-05" y="0.00019455" width="200.48" height="229.4" filterUnits="userSpaceOnUse" color-interpolation-filters="sRGB">
<feFlood flood-opacity="0" result="BackgroundImageFix"/>
<feColorMatrix in="SourceAlpha" type="matrix" values="0 0 0 0 0 0 0 0 0 0 0 0 0 0 0 0 0 0 127 0" result="hardAlpha"/>
<feOffset/>
<feGaussianBlur stdDeviation="10.1"/>
<feComposite in2="hardAlpha" operator="out"/>
<feColorMatrix type="matrix" values="0 0 0 0 0.501961 0 0 0 0 0.882353 0 0 0 0 0.839216 0 0 0 1 0"/>
<feBlend mode="normal" in2="BackgroundImageFix" result="effect1_dropShadow_90_346"/>
<feBlend mode="normal" in="SourceGraphic" in2="effect1_dropShadow_90_346" result="shape"/>
</filter>
</defs>
</svg>
