<svg width="69" height="73" viewBox="0 0 69 73" fill="none" xmlns="http://www.w3.org/2000/svg">
<path d="M62 0C65.866 0 69 3.13401 69 7V66C69 69.866 65.866 73 62 73H7C3.13401 73 0 69.866 0 66V7C0 3.13401 3.13401 0 7 0H62ZM11 25C9.89543 25 9 25.8954 9 27V60C9 61.1046 9.89543 62 11 62H18C19.1046 62 20 61.1046 20 60V27C20 25.8954 19.1046 25 18 25H11ZM61 37.999C60.6068 21.8771 41.6591 21.9914 37.2168 29.124C37.1057 29.3025 37.0363 29.5011 37 29.707V27C37 25.8954 36.1046 25 35 25H28C26.8954 25 26 25.8954 26 27V60C26 61.1046 26.8954 62 28 62H35C36.1046 62 37 61.1046 37 60V41.5586C40.069 34.9584 49 32.939 49 40.999V59.999C49 61.1036 49.8954 61.999 51 61.999H59C60.1046 61.999 61 61.1036 61 59.999V37.999ZM14.5 7C10.3579 7 7 10.5817 7 15C7 19.4183 10.3579 23 14.5 23C18.6421 23 22 19.4183 22 15C22 10.5817 18.6421 7 14.5 7Z" fill="#80E1D6"/>
</svg>
