<svg width="161" height="189" viewBox="0 0 161 189" fill="none" xmlns="http://www.w3.org/2000/svg">
<path d="M120.06 23.2998L159.715 47.25L160.08 94.5L159.715 141.75L120.06 165.7L80.04 189L40.0205 165.7L0.365234 141.75L0 94.5L0.365234 47.25L40.0205 23.2998L80.04 0L120.06 23.2998ZM43.5 29.4502L7.29395 51.5L6.95996 95L7.29395 138.5L43.5 160.55L80.04 182L116.58 160.55L152.786 138.5L153.12 95L152.786 51.5L116.58 29.4502L80.04 8L43.5 29.4502Z" fill="#80E1D6"/>
<path d="M25 92.1818V109.376C25 109.781 25.2248 110.47 26.1241 109.984L31.7443 106.641C32.1939 106.398 32.8684 106.033 32.8684 105.382V96.9164C32.8684 96.1871 33.6177 95.5995 33.9924 95.3969L35.9595 94.1813C36.6339 93.6951 37.3646 93.9787 37.6456 94.1813L39.6127 95.3969C40.5119 95.8832 40.7367 96.6125 40.7367 96.9164V105.426C40.7367 105.912 41.2988 106.439 41.5798 106.641L47.4811 110.288C48.3803 110.774 48.6051 110.085 48.6051 109.68V92.054C48.6051 91.3247 48.2304 90.9398 48.0431 90.8385L37.3646 84.1528C36.915 83.9097 36.4279 84.0515 36.2405 84.1528L25.843 90.8385C25 91.4462 25 91.8353 25 92.1818Z" fill="white"/>
<path d="M54.2254 91.8845V105.256C54.2254 105.383 54.2915 105.637 54.5064 105.928L58.7216 98.2664L54.8792 90.8249C54.586 91.0842 54.2254 91.4998 54.2254 91.8845Z" fill="url(#paint0_linear_90_345)"/>
<path d="M67.152 112.853L77.2685 106.472C77.4558 106.37 77.8305 105.985 77.8305 105.256L73.9706 98.1677L66.2801 84.0447C65.9564 83.984 65.5619 84.0153 65.1849 84.287L55.0894 90.6557C55.0293 90.699 54.9566 90.7565 54.8792 90.8249L58.7216 98.2664L66.2566 113.111C66.5328 113.097 66.8376 113.023 67.152 112.853Z" fill="url(#paint1_linear_90_345)"/>
<path d="M55.0684 106.472L65.1337 112.821C65.3276 112.96 65.7427 113.138 66.2566 113.111L58.7216 98.2664L54.5064 105.928C54.6348 106.102 54.8162 106.29 55.0684 106.472Z" fill="url(#paint2_linear_90_345)"/>
<path d="M76.9874 90.6689L66.871 84.287C66.747 84.1977 66.5356 84.0926 66.2801 84.0447L73.9706 98.1677L77.5293 91.1854C77.4023 91.019 77.2267 90.8414 76.9874 90.6689Z" fill="url(#paint3_linear_90_345)"/>
<path d="M77.8305 105.256V91.8845C77.8305 91.7538 77.7603 91.4881 77.5293 91.1854L73.9706 98.1677L77.8305 105.256Z" fill="url(#paint4_linear_90_345)"/>
<path d="M99.4683 67.8447C99.4683 67.4792 99.6369 66.809 100.311 67.0518L106.212 70.6982C106.587 70.9008 107.336 71.5492 107.336 72.5215V105.039C107.336 105.343 107.168 106.072 106.494 106.559L96.6588 112.637C96.1904 112.941 95.0287 113.366 94.1295 112.637L84.2935 106.559C84.0125 106.356 83.4508 105.768 83.4507 105.039V91.9717C83.4507 91.3639 84.0128 90.7561 84.5748 90.4521L94.4107 84.374C94.7387 84.1715 95.5908 83.888 96.3775 84.374L98.3443 85.5889C98.9063 85.8928 99.4683 85.893 99.4683 85.2852V67.8447ZM96.0963 94.0986C95.5343 93.7951 95.253 93.7951 94.691 94.0986L91.8814 95.6182C91.4319 95.8612 91.3189 96.53 91.3189 96.834V100.48C91.3189 100.967 91.6941 101.291 91.8814 101.393L94.691 103.216C95.1405 103.459 95.6275 103.317 95.815 103.216L98.6255 101.393C99.1875 101.089 99.1871 100.582 99.1871 100.48V96.834C99.187 96.1047 98.8129 95.7194 98.6255 95.6182L96.0963 94.0986Z" fill="white"/>
<path d="M123.074 84.2871C123.402 84.0846 124.254 83.8011 125.041 84.2871L127.008 85.5029L134.876 90.6172C135.25 90.8198 136 91.468 136 92.4404V94.8711C136 95.6004 135.438 96.188 135.157 96.3906L129.256 100.038C128.413 100.646 127.85 100.24 127.85 99.7334V96.3906C127.85 95.9047 127.476 95.5809 127.289 95.4795L124.478 93.96C124.029 93.717 123.542 93.8587 123.354 93.96L120.545 95.4795C120.095 95.7225 119.982 96.1878 119.982 96.3906V100.342C119.982 100.828 120.357 101.152 120.545 101.253L130.239 107.43C131.925 108.238 130.942 109.154 130.239 109.511L125.322 112.55C124.854 112.854 123.692 113.279 122.793 112.55L112.957 106.472C112.676 106.269 112.114 105.681 112.114 104.952V91.8848C112.114 91.277 112.676 90.6691 113.238 90.3652L123.074 84.2871Z" fill="white"/>
<path d="M123.394 95.7988C123.715 95.6023 124.119 95.6023 124.439 95.7988L125.139 96.2278L125.891 96.7059C126.177 96.888 126.352 97.203 126.354 97.5424L126.361 98.5175L126.354 99.4926C126.352 99.832 126.177 100.147 125.891 100.329L125.139 100.807L124.439 101.236C124.119 101.433 123.715 101.433 123.394 101.236L122.694 100.807L121.942 100.329C121.656 100.147 121.481 99.832 121.479 99.4926L121.472 98.5175L121.479 97.5424C121.481 97.203 121.656 96.888 121.942 96.7059L122.694 96.2278L123.394 95.7988Z" fill="#679E63"/>
<defs>
<linearGradient id="paint0_linear_90_345" x1="66.0279" y1="84.0186" x2="66.0279" y2="113.114" gradientUnits="userSpaceOnUse">
<stop stop-color="#3DA92E"/>
<stop offset="1" stop-color="#3F8F3B"/>
</linearGradient>
<linearGradient id="paint1_linear_90_345" x1="66.0279" y1="84.0186" x2="66.0279" y2="113.114" gradientUnits="userSpaceOnUse">
<stop stop-color="#6ABF4B"/>
<stop offset="1" stop-color="#416841"/>
</linearGradient>
<linearGradient id="paint2_linear_90_345" x1="66.0279" y1="84.0186" x2="66.0279" y2="113.114" gradientUnits="userSpaceOnUse">
<stop stop-color="#3F873F"/>
<stop offset="1" stop-color="#3F873F"/>
</linearGradient>
<linearGradient id="paint3_linear_90_345" x1="66.0279" y1="84.0186" x2="66.0279" y2="113.114" gradientUnits="userSpaceOnUse">
<stop stop-color="#54A245"/>
<stop offset="1" stop-color="#4D9943"/>
</linearGradient>
<linearGradient id="paint4_linear_90_345" x1="66.0279" y1="84.0186" x2="66.0279" y2="113.114" gradientUnits="userSpaceOnUse">
<stop stop-color="#3F873F"/>
<stop offset="1" stop-color="#3F8F3B"/>
</linearGradient>
</defs>
</svg>
