<svg width="161" height="189" viewBox="0 0 161 189" fill="none" xmlns="http://www.w3.org/2000/svg">
<path d="M120.06 23.2998L159.715 47.25L160.08 94.5L159.715 141.75L120.06 165.7L80.04 189L40.0205 165.7L0.365234 141.75L0 94.5L0.365234 47.25L40.0205 23.2998L80.04 0L120.06 23.2998ZM43.5 29.4502L7.29395 51.5L6.95996 95L7.29395 138.5L43.5 160.55L80.04 182L116.58 160.55L152.786 138.5L153.12 95L152.786 51.5L116.58 29.4502L80.04 8L43.5 29.4502Z" fill="#80E1D6"/>
<path d="M63.1122 107.03C59.8864 112.366 58.057 115.393 63.1803 118.72H38.6448C28.4227 118.72 32.5107 110.852 34.5551 106.918L34.5555 106.917C36.5998 102.982 58.839 64.6122 63.1803 59.7042C67.5217 54.7962 71.6151 54.7344 75.4481 59.7042C79.281 64.674 83.6266 73.4745 83.6266 73.4745L63.1803 106.917L63.1122 107.03Z" fill="#80EEC0"/>
<path d="M70.8852 106.915C65.4905 114.11 65.9389 117.929 72.9299 118.718H122.001C131.064 117.879 129.824 112.53 126.09 106.915L103.599 71.5055C99.6107 65.87 97.3119 65.9991 93.3761 71.5055C93.3761 71.5055 76.28 99.7197 70.8852 106.915Z" fill="#00DC82"/>
</svg>
