<svg width="35" height="72" viewBox="0 0 35 72" fill="none" xmlns="http://www.w3.org/2000/svg">
<path d="M31 0C33.2091 0 35 1.79086 35 4V68C35 70.2091 33.2091 72 31 72H4C1.79086 72 1.61066e-08 70.2091 0 68V4C1.03083e-06 1.79086 1.79086 1.20798e-08 4 0H31ZM17.5 65C16.1193 65 15 66.1193 15 67.5C15 68.8807 16.1193 70 17.5 70C18.8807 70 20 68.8807 20 67.5C20 66.1193 18.8807 65 17.5 65ZM2 8V62H33V8H2ZM15 4C14.4477 4 14 4.44772 14 5C14 5.55228 14.4477 6 15 6H20C20.5523 6 21 5.55228 21 5C21 4.44772 20.5523 4 20 4H15Z" fill="#80E1D6"/>
</svg>
