<svg width="161" height="189" viewBox="0 0 161 189" fill="none" xmlns="http://www.w3.org/2000/svg">
<path d="M120.06 23.2998L159.715 47.25L160.08 94.5L159.715 141.75L120.06 165.7L80.04 189L40.0205 165.7L0.365234 141.75L0 94.5L0.365234 47.25L40.0205 23.2998L80.04 0L120.06 23.2998ZM43.5 29.4502L7.29395 51.5L6.95996 95L7.29395 138.5L43.5 160.55L80.04 182L116.58 160.55L152.786 138.5L153.12 95L152.786 51.5L116.58 29.4502L80.04 8L43.5 29.4502Z" fill="#80E1D6"/>
<path d="M49.157 118.712C29.553 118.712 31.0233 73.916 49.157 73.916H82.4842V68.707H61.41V56.2061C61.41 45.2675 99.1473 42.6631 99.1473 56.2061V80.6875C99.1472 88.1881 93.7563 91.1054 88.8553 91.1055H73.6619C59.9392 91.1055 56.0185 98.9183 56.5086 109.336V118.712H49.157ZM69.741 64.0195C71.9064 64.0195 73.6619 62.1539 73.6619 59.8525C73.6619 57.5511 71.9064 55.6855 69.741 55.6855C67.5757 55.6856 65.8201 57.5512 65.8201 59.8525C65.8202 62.1538 67.5757 64.0194 69.741 64.0195Z" fill="#0277BC"/>
<path d="M111.456 70.4395C131.06 70.4395 129.589 115.235 111.456 115.235H78.1284V120.444H99.2036V132.945C99.2033 143.884 61.4657 146.488 61.4654 132.945V108.464C61.4654 100.963 66.8564 98.046 71.7574 98.0459H86.9507C100.673 98.0459 104.594 90.233 104.104 79.8154V70.4395H111.456ZM88.9107 125.653C86.7455 125.654 84.9908 127.519 84.9908 129.82C84.9909 132.121 86.7456 133.987 88.9107 133.987C91.076 133.987 92.8314 132.122 92.8316 129.82C92.8316 127.519 91.0761 125.653 88.9107 125.653Z" fill="#FEC008"/>
</svg>
