<svg width="168" height="189" viewBox="0 0 168 189" fill="none" xmlns="http://www.w3.org/2000/svg">
<path d="M124.06 23.2998L163.715 47.25L164.08 94.5L163.715 141.75L124.06 165.7L84.04 189L44.0205 165.7L4.36523 141.75L4 94.5L4.36523 47.25L44.0205 23.2998L84.04 0L124.06 23.2998ZM47.5 29.4502L11.2939 51.5L10.96 95L11.2939 138.5L47.5 160.55L84.04 182L120.58 160.55L156.786 138.5L157.12 95L156.786 51.5L120.58 29.4502L84.04 8L47.5 29.4502Z" fill="#80E1D6"/>
<path d="M56.7344 104.986C50.029 104.986 46.1176 108.752 45 110.635C45 106.399 47.8824 96.1582 63 95.0003C81.4398 93.5878 84.1594 108.394 96 108.394C109.5 108.393 114.907 96.3809 113.73 100.75C112.507 105.291 113.426 119.701 86.9086 119.109C75.1779 118.847 65.1161 104.986 56.7344 104.986Z" fill="url(#paint0_linear_90_348)"/>
<path d="M68.7344 80.9736C62.029 80.9736 58.1176 84.7396 57 86.6226C57 82.386 59.8824 72.1455 75 70.9876C93.4398 69.5751 96.1594 84.3816 108 84.3811C121.5 84.3806 126.907 72.3682 125.73 76.7369C124.507 81.2784 125.426 95.688 98.9086 95.0959C87.1779 94.834 77.1161 80.9736 68.7344 80.9736Z" fill="url(#paint1_linear_90_348)"/>
<defs>
<linearGradient id="paint0_linear_90_348" x1="145.5" y1="95.0001" x2="43.5" y2="95.0001" gradientUnits="userSpaceOnUse">
<stop stop-color="#16CA7E"/>
<stop offset="1" stop-color="#16BDCA"/>
</linearGradient>
<linearGradient id="paint1_linear_90_348" x1="157.5" y1="70.9874" x2="55.5" y2="70.9874" gradientUnits="userSpaceOnUse">
<stop stop-color="#16CA7E"/>
<stop offset="1" stop-color="#16BDCA"/>
</linearGradient>
</defs>
</svg>
