<svg width="161" height="189" viewBox="0 0 161 189" fill="none" xmlns="http://www.w3.org/2000/svg">
<path d="M120.06 23.2998L159.715 47.25L160.08 94.5L159.715 141.75L120.06 165.7L80.04 189L40.0205 165.7L0.365234 141.75L0 94.5L0.365234 47.25L40.0205 23.2998L80.04 0L120.06 23.2998ZM43.5 29.4502L7.29395 51.5L6.95996 95L7.29395 138.5L43.5 160.55L80.04 182L116.58 160.55L152.786 138.5L153.12 95L152.786 51.5L116.58 29.4502L80.04 8L43.5 29.4502Z" fill="#80E1D6"/>
<path d="M51.7344 105.094C45.029 105.094 41.1176 108.86 40 110.743C40 106.506 42.8824 96.2656 58 95.1077C76.4398 93.6953 79.1594 108.502 91 108.501C104.5 108.501 109.907 96.4883 108.73 100.857C107.507 105.399 108.426 119.808 81.9086 119.216C70.1779 118.954 60.1161 105.094 51.7344 105.094Z" fill="url(#paint0_linear_137_25)"/>
<path d="M63.7344 81.0811C57.029 81.0811 53.1176 84.847 52 86.73C52 82.4934 54.8824 72.2529 70 71.095C88.4398 69.6826 91.1594 84.489 103 84.4886C116.5 84.488 121.907 72.4756 120.73 76.8444C119.507 81.3858 120.426 95.7954 93.9086 95.2033C82.1779 94.9414 72.1161 81.0811 63.7344 81.0811Z" fill="url(#paint1_linear_137_25)"/>
<defs>
<linearGradient id="paint0_linear_137_25" x1="140.5" y1="95.1075" x2="38.5" y2="95.1075" gradientUnits="userSpaceOnUse">
<stop stop-color="#16CA7E"/>
<stop offset="1" stop-color="#16BDCA"/>
</linearGradient>
<linearGradient id="paint1_linear_137_25" x1="152.5" y1="71.0948" x2="50.5" y2="71.0948" gradientUnits="userSpaceOnUse">
<stop stop-color="#16CA7E"/>
<stop offset="1" stop-color="#16BDCA"/>
</linearGradient>
</defs>
</svg>
