<svg width="161" height="189" viewBox="0 0 161 189" fill="none" xmlns="http://www.w3.org/2000/svg">
<path d="M120.06 23.2998L159.715 47.25L160.08 94.5L159.715 141.75L120.06 165.7L80.04 189L40.0205 165.7L0.365234 141.75L0 94.5L0.365234 47.25L40.0205 23.2998L80.04 0L120.06 23.2998ZM43.5 29.4502L7.29395 51.5L6.95996 95L7.29395 138.5L43.5 160.55L80.04 182L116.58 160.55L152.786 138.5L153.12 95L152.786 51.5L116.58 29.4502L80.04 8L43.5 29.4502Z" fill="#80E1D6"/>
<path d="M78.748 112.783L50.9724 63H33L78.748 147.48L126.13 63H106.524L78.748 112.783Z" fill="#41B883"/>
<path d="M78.7481 112.783L50.9725 63H68.945L78.7481 82.6114L88.5513 63H106.524L78.7481 112.783Z" fill="#34495E"/>
</svg>
